<?xml version="1.0" standalone="no"?>
<!DOCTYPE svg PUBLIC "-//W3C//DTD SVG 20010904//EN"
 "http://www.w3.org/TR/2001/REC-SVG-20010904/DTD/svg10.dtd">
<svg version="1.0" xmlns="http://www.w3.org/2000/svg"
 width="703.000000pt" height="1280.000000pt" viewBox="0 0 703.000000 1280.000000"
 preserveAspectRatio="xMidYMid meet">
<metadata>
Created by potrace 1.15, written by Peter Selinger 2001-2017
</metadata>
<g transform="translate(0.000000,1280.000000) scale(0.100000,-0.100000)"
fill="#FAFEFD" stroke="none">
<path d="M4455 12785 c-54 -19 -69 -43 -110 -170 -20 -60 -40 -119 -45 -130
-6 -11 -17 -53 -25 -93 -8 -40 -23 -92 -34 -115 -10 -23 -22 -53 -25 -67 -4
-14 -11 -34 -16 -45 -18 -39 -70 -203 -70 -221 0 -25 -23 -88 -38 -106 -15
-18 -52 -118 -96 -258 -19 -58 -50 -151 -70 -208 -20 -56 -36 -112 -36 -125 0
-20 -94 -304 -104 -314 -2 -2 -32 10 -67 27 -57 29 -66 31 -98 20 l-36 -11
-105 101 c-58 56 -104 106 -102 111 1 6 -3 9 -10 7 -22 -4 -60 22 -54 38 3 9
-2 17 -12 21 -9 4 -20 11 -24 17 -4 6 -13 11 -20 12 -24 1 -58 15 -58 24 0 5
7 7 15 4 27 -11 16 3 -25 30 -22 14 -40 24 -40 21 0 -4 -13 2 -30 12 -16 9
-30 23 -30 29 0 6 -8 11 -17 10 -10 0 -18 5 -18 13 0 8 -6 16 -12 19 -7 2 -13
-1 -13 -8 0 -6 -5 -8 -10 -5 -6 4 -8 11 -5 16 4 5 -2 12 -12 16 -10 4 -37 22
-61 40 -24 18 -48 33 -54 33 -6 0 -45 19 -87 43 -42 24 -96 49 -121 56 -25 7
-67 24 -95 36 -85 40 -156 64 -276 95 -186 47 -315 63 -469 57 -144 -6 -192
-17 -293 -67 -33 -16 -66 -30 -74 -30 -7 0 -73 -54 -146 -119 -103 -91 -147
-138 -189 -203 -83 -127 -136 -218 -153 -268 -17 -49 -23 -209 -11 -296 l7
-51 -53 -32 c-29 -18 -84 -52 -123 -77 -38 -24 -96 -54 -128 -66 -67 -24 -87
-47 -87 -100 0 -34 -4 -39 -37 -53 -44 -19 -72 -14 -166 27 -38 16 -72 28 -76
26 -12 -4 -101 -116 -134 -165 -15 -24 -27 -52 -27 -64 0 -12 -25 -45 -64 -82
-46 -44 -67 -74 -75 -102 -15 -55 -14 -163 4 -324 20 -178 72 -714 80 -816 3
-44 12 -152 20 -240 8 -88 21 -248 30 -355 39 -487 109 -1311 150 -1750 19
-212 39 -437 45 -500 6 -63 17 -176 25 -250 15 -132 31 -316 60 -675 8 -99 17
-198 20 -220 3 -22 16 -173 30 -335 42 -492 55 -634 60 -656 3 -12 10 -102 15
-200 6 -99 15 -215 20 -259 5 -44 18 -192 29 -330 11 -137 25 -304 31 -370 5
-66 17 -208 25 -315 24 -306 44 -556 55 -670 13 -137 46 -523 65 -775 26 -325
48 -405 137 -495 133 -133 249 -191 573 -285 50 -14 119 -36 155 -49 87 -33
296 -79 323 -72 11 3 32 -1 46 -9 29 -16 147 -38 436 -84 216 -35 552 -56 591
-39 17 8 27 8 36 0 17 -14 285 -24 294 -11 3 6 97 9 237 9 286 -1 634 15 786
35 63 8 135 15 160 15 88 0 487 74 711 131 358 92 513 158 636 273 44 40 91
95 106 122 34 62 54 175 68 379 6 88 15 201 20 250 6 50 17 178 26 285 8 107
19 238 24 290 15 146 32 356 85 1040 14 179 30 375 36 435 6 61 14 191 19 290
5 99 11 200 14 225 6 42 12 116 36 455 15 219 49 664 60 780 5 61 17 200 25
310 9 110 17 207 20 215 10 34 46 563 44 655 -2 101 13 302 31 411 6 32 10 85
10 116 0 31 5 60 10 63 6 4 7 12 3 18 -10 16 -13 59 -5 71 4 6 8 27 9 46 1 19
8 138 16 264 7 126 12 238 10 250 -3 12 2 49 10 82 8 32 15 113 16 179 1 144
17 309 32 336 7 14 7 24 0 33 -10 12 -5 94 39 631 11 132 22 294 26 360 5 111
38 539 66 836 16 186 0 248 -82 323 -50 45 -168 103 -230 114 -40 7 -45 11
-55 44 -15 52 -33 68 -143 122 l-100 49 -49 -36 c-115 -87 -117 -88 -151 -76
-17 6 -34 19 -37 29 -3 10 -18 23 -33 28 -15 6 -44 26 -65 46 -20 20 -45 36
-54 36 -46 0 -159 37 -251 82 l-103 50 -27 -31 -27 -31 -49 15 c-62 19 -76 19
-76 0 0 -9 14 -17 39 -21 74 -12 73 -15 -45 -136 -119 -122 -142 -152 -122
-164 8 -5 68 51 168 153 l156 160 59 -33 c33 -19 105 -48 160 -65 121 -39 159
-57 208 -103 36 -34 37 -36 37 -110 0 -85 2 -83 -78 -65 -76 18 -93 9 -179
-93 -43 -51 -108 -125 -145 -166 -38 -40 -68 -82 -68 -93 0 -41 24 -22 145
114 56 63 84 87 101 87 20 0 24 5 24 29 0 21 10 38 36 61 49 43 64 40 329 -54
72 -26 133 -50 136 -54 4 -4 -9 -62 -28 -130 -32 -113 -37 -162 -14 -148 11 7
43 89 74 193 l24 82 -26 25 c-15 14 -75 42 -141 65 -150 53 -145 50 -141 97 4
48 12 58 81 102 30 19 70 48 88 64 36 31 68 36 98 13 10 -8 35 -19 55 -25 50
-14 82 -49 102 -113 9 -30 41 -101 71 -158 29 -57 59 -122 66 -144 7 -22 17
-46 23 -53 8 -10 7 -16 -4 -23 -309 -198 -1231 -417 -2059 -489 -301 -26 -599
-38 -613 -24 -3 3 -1 18 5 33 5 14 14 39 19 55 15 51 -10 14 -30 -45 l-19 -54
-199 -9 c-109 -4 -276 -5 -370 -1 -156 6 -172 9 -164 24 4 9 11 93 15 186 3
94 10 185 15 202 12 40 3 50 -74 93 -75 41 -71 36 -48 57 11 10 42 65 68 123
26 58 56 112 66 121 10 9 42 19 71 23 29 4 109 18 177 31 68 14 156 27 195 31
l72 6 29 -67 c16 -38 61 -117 102 -178 40 -60 80 -130 89 -156 15 -46 15 -47
-35 -236 -30 -117 -46 -194 -41 -199 6 -5 12 -7 15 -5 9 10 105 335 111 379 4
31 1 58 -10 84 -21 50 -21 51 9 64 14 6 44 29 67 49 47 42 104 83 114 83 13 0
323 -253 433 -355 51 -47 66 -56 69 -43 2 10 -13 38 -33 62 l-36 45 30 118
c16 65 33 133 36 150 4 18 10 35 14 37 10 7 200 35 341 51 63 7 124 16 136 20
20 6 21 2 27 -62 4 -37 7 -88 7 -113 0 -25 4 -50 8 -57 4 -7 58 -37 119 -67
61 -30 114 -59 117 -64 3 -6 9 -46 12 -89 8 -127 12 -143 34 -143 18 0 20 7
20 64 0 34 -3 91 -6 125 l-7 61 -88 47 c-49 25 -104 59 -122 74 -33 27 -35 31
-41 121 -12 155 -17 162 -113 145 -30 -5 -56 -7 -59 -5 -2 3 62 135 142 294
157 310 370 736 449 899 27 55 61 122 77 148 15 26 28 54 28 62 0 7 67 148
149 312 81 164 163 330 181 368 18 39 43 84 56 102 22 30 23 33 10 71 -23 65
-45 90 -101 117 -46 21 -68 25 -148 25 -107 0 -116 -5 -138 -79 -7 -23 -19
-45 -26 -48 -7 -3 -13 -13 -13 -22 0 -9 -9 -33 -20 -54 -11 -20 -20 -42 -20
-47 0 -6 -10 -27 -23 -48 -13 -20 -51 -98 -85 -172 -35 -74 -96 -198 -138
-275 -42 -77 -84 -164 -95 -194 -11 -30 -25 -62 -32 -70 -7 -9 -23 -41 -36
-71 -13 -30 -32 -71 -42 -90 -11 -19 -38 -75 -61 -125 -76 -163 -337 -670
-345 -670 -4 0 -20 42 -35 94 -26 92 -28 95 -94 155 -37 34 -73 65 -81 69 -14
8 -125 -47 -208 -103 -22 -15 -59 -37 -82 -49 -53 -27 -57 -46 -7 -38 20 3 87
38 148 77 62 38 119 70 128 70 18 0 110 -95 130 -136 9 -16 28 -71 42 -123
l27 -94 -80 -156 c-218 -423 -247 -476 -263 -479 -9 -2 -35 15 -58 37 -39 37
-42 44 -37 77 9 54 18 59 76 39 29 -9 58 -14 66 -11 22 8 18 33 -7 51 -19 13
-21 17 -8 25 26 16 0 24 -28 8 -25 -15 -33 -15 -107 4 -44 11 -85 24 -92 30
-6 5 -29 50 -49 99 -21 50 -43 89 -50 89 -18 0 -18 3 12 -82 42 -115 70 -166
96 -170 17 -2 24 -11 26 -30 4 -36 -9 -35 -63 2 -59 41 -95 39 -151 -6 -25
-20 -46 -35 -49 -32 -5 4 18 85 36 131 6 15 18 27 26 27 12 0 13 -3 4 -14 -19
-23 19 -39 53 -23 14 7 26 15 26 19 0 4 -18 19 -40 33 -22 14 -40 31 -40 39 0
13 193 591 377 1126 112 328 224 664 350 1047 l47 142 -18 40 c-27 59 -55 80
-122 92 -32 6 -73 15 -90 20 -40 12 -61 11 -109 -6z m91 -70 c-11 -42 -25 -75
-33 -75 -26 1 -32 17 -21 58 9 35 14 42 35 42 22 0 24 -3 19 -25z m58 3 c-21
-69 -32 -92 -42 -96 -17 -5 -15 25 4 75 17 45 52 63 38 21z m-128 -4 c-3 -9
-6 -21 -7 -27 0 -7 -4 -3 -8 8 -9 22 -5 35 11 35 5 0 7 -7 4 -16z m168 -11
c-10 -43 -34 -97 -40 -91 -8 9 26 118 37 118 5 0 6 -12 3 -27z m34 -14 c-6
-16 -12 -28 -14 -26 -5 5 13 57 20 57 3 0 0 -14 -6 -31z m-199 -168 c-10 -26
-75 -219 -144 -431 -106 -324 -160 -483 -243 -715 -6 -16 -51 -149 -101 -295
-77 -230 -246 -711 -266 -762 -4 -10 -11 -18 -15 -18 -20 0 -18 39 6 116 15
47 24 88 20 91 -10 11 -22 -9 -40 -64 -17 -51 -40 -82 -53 -70 -6 6 57 196
216 652 38 110 81 232 96 270 15 39 29 79 32 90 3 11 25 81 49 155 38 119 72
215 178 507 14 40 37 115 50 167 14 51 40 134 59 182 19 49 46 129 61 178 l27
89 43 -49 43 -48 -18 -45z m1344 47 c-30 -55 -61 -79 -48 -37 12 40 46 89 61
89 12 0 9 -12 -13 -52z m85 45 c-41 -93 -63 -133 -74 -133 -8 0 -14 5 -14 11
0 23 63 129 77 129 8 0 13 -3 11 -7z m-128 -11 c0 -5 -6 -16 -13 -27 -10 -13
-16 -15 -21 -6 -4 6 -2 18 4 26 13 16 30 20 30 7z m156 -54 c-19 -50 -52 -96
-61 -86 -6 6 37 100 58 126 18 23 20 3 3 -40z m-1396 -19 c0 -11 -9 -41 -19
-67 -11 -26 -43 -119 -71 -207 -29 -88 -59 -180 -67 -205 -8 -25 -18 -58 -23
-75 -4 -16 -29 -88 -55 -160 -26 -71 -73 -209 -105 -305 -183 -544 -436 -1258
-451 -1274 -30 -33 15 113 193 624 170 486 325 940 380 1105 160 488 194 585
205 585 7 0 13 -9 13 -21z m-15 -189 c-31 -91 -71 -217 -91 -280 -19 -63 -56
-173 -81 -245 -25 -71 -99 -285 -163 -475 -65 -190 -126 -367 -136 -395 -10
-27 -39 -108 -65 -180 -26 -71 -61 -175 -77 -230 -36 -117 -119 -336 -133
-350 -17 -17 -2 28 336 1010 51 149 114 331 140 405 44 128 73 215 232 695 36
110 70 211 76 225 10 23 11 23 14 5 2 -11 -21 -94 -52 -185z m80 130 c-4 -12
-9 -19 -12 -17 -3 3 -2 15 2 27 4 12 9 19 12 17 3 -3 2 -15 -2 -27z m1109 22
c3 -5 -21 -63 -54 -129 -32 -67 -61 -132 -65 -145 -16 -52 25 9 79 120 49 98
76 134 76 102 0 -5 -74 -158 -165 -340 -91 -182 -165 -338 -165 -345 0 -19
-578 -1151 -746 -1462 -26 -48 -51 -83 -60 -83 -12 0 -4 22 30 84 25 46 46 89
46 95 0 31 -24 -1 -85 -118 -69 -130 -129 -223 -87 -136 33 70 87 177 141 278
72 136 693 1378 725 1452 51 114 311 635 318 635 4 0 9 -4 12 -8z m96 -79 c0
-3 -72 -148 -161 -322 -88 -174 -171 -344 -184 -379 -22 -56 -194 -400 -520
-1037 -207 -405 -235 -455 -260 -455 -9 0 32 92 116 258 72 141 135 262 139
267 10 13 161 307 349 679 83 164 151 306 151 317 0 10 73 159 161 331 89 172
165 323 170 335 5 15 14 21 24 17 8 -3 15 -9 15 -11z m50 -13 c0 -5 -76 -163
-170 -350 -93 -187 -170 -342 -170 -345 0 -27 -717 -1435 -745 -1464 -24 -24
-31 -2 -11 32 65 110 726 1415 725 1431 -1 21 346 704 359 705 6 1 12 -3 12
-9z m95 -49 c-19 -38 -28 -41 -14 -5 13 35 20 46 26 41 2 -3 -3 -19 -12 -36z
m-1410 -63 c-15 -46 -32 -87 -38 -93 -7 -7 -8 -5 -5 5 3 8 17 52 33 98 15 46
30 81 32 78 3 -3 -7 -43 -22 -88z m1366 -25 c-12 -20 -14 -14 -5 12 4 9 9 14
11 11 3 -2 0 -13 -6 -23z m-1301 7 c0 -5 -5 -10 -11 -10 -5 0 -7 5 -4 10 3 6
8 10 11 10 2 0 4 -4 4 -10z m-117 -125 c-3 -9 -8 -14 -10 -11 -3 3 -2 9 2 15
9 16 15 13 8 -4z m-32 -112 c-12 -20 -14 -14 -5 12 4 9 9 14 11 11 3 -2 0 -13
-6 -23z m1313 -48 c-4 -8 -11 -15 -16 -15 -6 0 -5 6 2 15 7 8 14 15 16 15 2 0
1 -7 -2 -15z m-14 -29 c0 -3 -4 -8 -10 -11 -5 -3 -10 -1 -10 4 0 6 5 11 10 11
6 0 10 -2 10 -4z m-1360 -116 c-18 -50 -35 -89 -37 -86 -5 4 43 159 54 179 3
5 7 6 10 3 3 -3 -9 -46 -27 -96z m70 -4 c0 -3 -4 -8 -10 -11 -5 -3 -10 -1 -10
4 0 6 5 11 10 11 6 0 10 -2 10 -4z m-2305 -90 c55 -13 140 -34 188 -45 49 -12
123 -37 165 -57 42 -20 103 -46 137 -59 101 -38 187 -85 255 -140 36 -28 103
-77 150 -108 195 -129 268 -187 423 -333 79 -75 88 -92 62 -114 -12 -10 -24
-3 -71 39 -31 29 -59 49 -62 46 -3 -3 18 -30 48 -60 66 -67 61 -85 -6 -21 -26
25 -52 46 -58 46 -6 -1 13 -22 42 -49 28 -26 52 -51 52 -54 0 -17 -30 -4 -69
29 -57 50 -62 37 -6 -15 l46 -42 -21 -26 c-24 -30 -25 -58 -6 -150 30 -150 30
-143 -2 -143 -15 0 -33 -5 -40 -12 -6 -6 -14 -9 -17 -6 -4 3 8 16 24 28 36 25
43 50 9 28 -13 -9 -38 -29 -57 -47 -18 -17 -39 -31 -47 -31 -7 0 -28 -13 -46
-29 -18 -15 -43 -31 -54 -35 -38 -12 -76 -54 -69 -76 4 -14 2 -20 -8 -20 -8 0
-26 -9 -40 -20 -14 -12 -47 -27 -73 -35 -44 -13 -94 -49 -94 -67 0 -4 23 -8
51 -8 63 0 56 -17 -11 -26 -53 -7 -62 -17 -30 -34 11 -6 20 -21 20 -33 0 -12
5 -29 10 -37 14 -22 -18 -30 -60 -15 -50 18 -160 82 -191 111 -33 31 -45 30
-146 -8 -72 -27 -88 -30 -116 -21 -55 19 -237 37 -249 25 -8 -8 -2 -13 18 -17
57 -13 94 -27 94 -35 0 -11 -104 -18 -111 -7 -4 6 -35 7 -73 3 -72 -8 -94 -3
-75 20 15 18 5 17 -51 -2 -29 -10 -59 -13 -87 -9 -42 6 -68 25 -45 33 7 2 19
11 28 20 14 13 24 14 80 3 35 -7 70 -11 77 -8 7 2 34 1 60 -3 26 -4 47 -4 47
1 0 23 -227 67 -355 69 -136 2 -134 2 -111 -15 13 -10 43 -15 82 -15 95 0 123
-18 63 -39 -51 -17 -107 -14 -112 7 -4 16 -4 16 -12 -1 -5 -13 -1 -24 14 -38
11 -11 21 -31 21 -44 0 -13 7 -30 15 -39 8 -8 15 -23 15 -33 0 -10 4 -25 10
-33 7 -12 10 -11 16 5 4 11 12 23 18 27 16 11 146 10 146 -1 0 -6 -33 -20 -72
-32 -104 -31 -107 -33 -70 -37 33 -3 41 -19 20 -40 -17 -17 3 -15 29 3 23 16
114 33 98 18 -5 -5 -27 -21 -47 -37 -41 -29 -50 -56 -19 -56 14 0 17 -6 14
-24 -6 -30 26 -50 66 -41 26 6 27 4 23 -26 l-5 -32 47 48 c25 27 46 50 46 52
0 2 -7 3 -16 3 -28 0 -9 24 24 31 34 7 60 -11 47 -31 -4 -6 0 -17 9 -23 19
-15 46 -89 46 -129 0 -19 -9 -37 -27 -53 -16 -13 -25 -27 -21 -31 5 -4 17 1
28 11 17 15 20 16 20 3 0 -31 -13 -78 -21 -78 -5 0 -47 34 -94 76 -95 85 -114
87 -30 4 30 -30 55 -58 55 -62 0 -20 -27 -3 -86 54 -74 70 -87 67 -17 -4 l47
-48 -37 0 c-31 0 -44 8 -84 50 -52 55 -69 60 -29 7 14 -19 26 -37 26 -40 0 -4
-16 -7 -35 -7 -30 0 -35 3 -35 24 0 29 -27 59 -43 50 -7 -4 -19 -13 -28 -21
-14 -12 -17 -12 -22 1 -3 8 1 17 9 20 18 7 35 51 28 71 -4 8 -17 18 -29 21
-30 8 -52 33 -57 64 -2 18 -12 28 -35 35 -27 7 -33 14 -33 37 0 20 -6 31 -21
37 -15 5 -22 17 -24 40 -3 34 -29 71 -52 71 -15 0 -18 -26 -3 -35 6 -3 10 -16
10 -28 0 -22 -1 -22 -20 3 -23 30 -26 73 -5 90 8 7 15 18 15 25 0 15 -43 45
-65 45 -18 0 -20 21 -2 39 10 10 8 15 -6 26 -12 9 -16 20 -12 37 5 19 -2 31
-35 61 -23 20 -60 42 -83 48 -56 15 -142 7 -166 -15 -21 -19 -41 -14 -41 10 0
8 8 14 18 14 10 0 26 6 36 13 17 13 17 14 -7 30 -22 14 -27 14 -37 2 -19 -23
-26 -18 -38 24 -19 62 -16 65 33 37 34 -20 49 -24 63 -17 10 6 28 8 39 5 24
-7 40 11 18 20 -10 3 -15 19 -15 43 l0 38 20 -33 c27 -44 65 -61 87 -39 13 13
14 20 5 29 -9 9 -15 9 -24 0 -16 -16 -28 -15 -28 3 0 9 7 18 15 21 19 8 20 24
1 24 -8 0 -22 7 -30 16 -9 8 -20 13 -25 9 -6 -3 -14 3 -20 12 -9 16 -12 16
-21 3 -6 -8 -9 -31 -8 -50 3 -29 0 -35 -17 -35 -13 0 -19 -6 -17 -18 4 -22 -4
-21 -37 2 -15 11 -36 19 -46 18 -15 -2 -21 7 -26 33 -3 19 -9 47 -13 62 -7 23
-4 27 16 30 34 4 29 32 -7 38 -27 5 -31 10 -37 50 -4 25 -15 90 -24 145 -31
183 -29 237 9 346 25 71 55 128 113 215 98 146 140 190 180 190 22 -1 28 3 26
16 -9 56 254 191 424 218 96 15 276 4 389 -24z m2189 -41 c-4 -8 -8 -15 -10
-15 -2 0 -4 7 -4 15 0 8 4 15 10 15 5 0 7 -7 4 -15z m1249 -81 c-10 -19 -19
-31 -21 -24 -4 10 24 60 33 60 3 0 -3 -16 -12 -36z m-1309 -78 c-3 -15 -8 -25
-11 -23 -2 3 -1 17 3 31 3 15 8 25 11 23 2 -3 1 -17 -3 -31z m1236 -66 c-16
-31 -23 -18 -8 15 7 15 14 23 16 17 2 -6 -2 -21 -8 -32z m-54 -102 c-18 -26
-22 -17 -5 14 6 11 13 17 16 15 3 -3 -2 -16 -11 -29z m-1226 18 c0 -3 -4 -8
-10 -11 -5 -3 -10 -1 -10 4 0 6 5 11 10 11 6 0 10 -2 10 -4z m-29 -63 c-8 -15
-10 -15 -11 -2 0 17 10 32 18 25 2 -3 -1 -13 -7 -23z m-20 -56 c-10 -9 -11 -8
-5 6 3 10 9 15 12 12 3 -3 0 -11 -7 -18z m-41 -138 c-41 -112 -58 -126 -21
-16 31 90 40 111 47 104 2 -2 -10 -41 -26 -88z m1184 -34 c-4 -8 -11 -15 -16
-15 -6 0 -5 6 2 15 7 8 14 15 16 15 2 0 1 -7 -2 -15z m-14 -29 c0 -3 -4 -8
-10 -11 -5 -3 -10 -1 -10 4 0 6 5 11 10 11 6 0 10 -2 10 -4z m-1223 -78 c-3
-8 -6 -5 -6 6 -1 11 2 17 5 13 3 -3 4 -12 1 -19z m-38 -112 c-28 -77 -34 -66
-7 14 12 35 23 59 25 53 2 -6 -6 -36 -18 -67z m-345 24 c25 -12 46 -25 46 -30
0 -8 -33 -106 -127 -375 l-50 -140 -63 -13 c-66 -13 -90 -11 -90 8 0 7 18 10
45 9 24 -2 48 0 51 4 4 3 -5 44 -18 89 -65 214 -72 246 -55 270 33 50 180 198
197 198 9 0 38 -9 64 -20z m1459 -110 c-5 -19 -23 -39 -23 -25 0 9 20 45 24
45 2 0 2 -9 -1 -20z m-1143 -5 c0 -8 -4 -15 -10 -15 -5 0 -7 7 -4 15 4 8 8 15
10 15 2 0 4 -7 4 -15z m-3035 -167 c9 -51 23 -115 30 -143 53 -184 69 -233 84
-260 28 -48 43 -98 28 -92 -127 54 -189 84 -220 109 l-39 30 -30 -28 c-16 -16
-61 -73 -99 -126 -38 -53 -74 -100 -79 -103 -6 -3 -15 6 -20 20 -12 32 -30
264 -30 396 l0 96 113 63 c61 35 126 73 142 85 40 30 88 54 96 49 4 -2 14 -46
24 -96z m3018 -63 c-3 -9 -8 -14 -10 -11 -3 3 -2 9 2 15 9 16 15 13 8 -4z
m-3588 -145 c44 -12 93 -28 109 -36 21 -10 33 -11 42 -3 15 12 20 -29 29 -229
4 -73 11 -146 16 -162 9 -25 5 -36 -37 -99 -45 -69 -52 -101 -19 -101 8 0 29
29 49 68 19 37 52 90 73 117 21 28 57 79 81 116 23 36 55 78 71 93 l29 28 39
-21 c21 -11 72 -36 113 -54 110 -50 112 -53 122 -210 10 -161 19 -219 36 -225
15 -5 16 66 1 191 -6 51 -9 110 -7 132 l3 40 19 -50 c27 -72 70 -162 106 -223
l32 -52 -54 -24 c-29 -12 -74 -29 -101 -36 -46 -12 -65 -25 -54 -37 13 -12
120 21 235 73 l123 55 42 -23 c36 -20 48 -36 84 -110 32 -65 46 -86 58 -82 8
4 15 12 15 20 0 16 26 19 35 3 13 -19 -26 -49 -64 -49 -83 0 -832 147 -946
185 -105 35 -303 117 -370 153 -78 41 -70 28 -120 214 -41 152 -42 189 -12
240 14 24 39 63 57 87 36 49 30 48 165 11z m165 5 c0 -23 -2 -24 -21 -15 -16
9 -18 14 -8 26 17 21 29 17 29 -11z m2784 5 c-21 -22 -114 -55 -114 -41 0 15
35 39 70 49 58 17 67 15 44 -8z m90 -10 c-16 -16 -73 -30 -79 -20 -8 13 68 50
80 39 5 -6 5 -13 -1 -19z m-185 -59 c11 -7 10 -11 -7 -20 -27 -15 -32 -14 -32
4 0 12 -7 14 -26 9 -19 -5 -25 -4 -20 5 8 13 65 15 85 2z m128 -8 c6 -17 -33
-35 -65 -31 l-27 3 35 23 c36 23 51 24 57 5z m1513 -43 c-6 -11 -13 -20 -16
-20 -2 0 0 9 6 20 6 11 13 20 16 20 2 0 0 -9 -6 -20z m-1730 -10 c0 -5 -9 -10
-20 -10 -11 0 -20 5 -20 10 0 6 9 10 20 10 11 0 20 -4 20 -10z m3436 -121 c41
-40 64 -92 64 -143 0 -14 -3 -26 -8 -26 -4 0 -34 -20 -67 -45 -77 -58 -375
-206 -485 -240 -176 -56 -291 -87 -480 -131 -504 -117 -981 -178 -1685 -215
-283 -15 -1125 -15 -1320 0 -82 6 -244 18 -360 27 -218 15 -531 46 -670 65
-96 13 -436 74 -520 93 -33 8 -101 22 -151 31 -250 45 -569 167 -770 294 -40
26 -78 65 -111 117 -11 18 -12 18 -12 -2 -1 -12 10 -37 23 -57 17 -24 21 -38
14 -45 -8 -8 -6 -18 5 -36 12 -18 13 -26 4 -29 -8 -3 -6 -10 7 -26 17 -19 17
-21 3 -21 -20 0 -22 -11 -5 -28 9 -9 8 -15 -7 -25 -12 -10 -14 -16 -7 -21 7
-4 12 -17 12 -29 0 -16 17 -34 64 -64 193 -126 445 -216 806 -289 482 -96 625
-119 840 -134 85 -6 184 -15 220 -20 78 -12 242 -26 445 -39 561 -37 1082 -45
1455 -23 293 17 601 41 611 48 4 2 16 -10 25 -28 9 -18 49 -64 88 -103 39 -38
97 -99 128 -135 32 -36 57 -60 58 -53 0 6 -44 60 -97 119 -149 163 -165 183
-159 193 4 5 32 12 64 16 338 37 807 117 1062 180 52 13 122 29 155 35 204 41
443 126 645 231 128 66 148 83 133 107 -6 11 -9 29 -6 41 6 25 6 25 -41 6 -48
-20 -46 -12 4 16 38 21 52 39 31 39 -5 0 -47 -14 -92 -30 -45 -17 -84 -28 -87
-26 -3 3 4 8 14 12 37 12 119 54 144 73 35 28 17 38 -28 16 -52 -25 -108 -48
-102 -42 3 3 40 28 82 56 42 29 89 66 104 84 l26 31 -7 -134 c-4 -74 -11 -178
-15 -230 -4 -52 -17 -207 -28 -345 -12 -137 -30 -378 -42 -535 -11 -157 -27
-375 -35 -485 -9 -110 -20 -263 -25 -340 -5 -77 -19 -250 -29 -385 -11 -135
-27 -351 -36 -480 -9 -129 -21 -275 -25 -325 -18 -174 -77 -947 -85 -1095 -2
-30 -8 -113 -14 -185 -6 -71 -15 -211 -21 -310 -5 -99 -12 -211 -15 -250 -3
-38 -12 -167 -20 -285 -9 -118 -22 -300 -30 -405 -8 -104 -20 -257 -25 -340
-6 -82 -15 -186 -20 -230 -5 -44 -14 -154 -20 -245 -12 -203 -34 -519 -61
-875 -12 -148 -24 -322 -29 -385 -5 -63 -15 -191 -24 -285 -9 -93 -23 -242
-31 -330 -8 -88 -24 -277 -35 -420 -35 -453 -41 -481 -108 -553 -32 -34 -57
-35 -47 -2 5 17 -4 14 -69 -15 -110 -51 -125 -42 -22 13 110 58 126 84 22 37
-69 -32 -128 -49 -81 -23 67 36 165 101 161 106 -3 2 -11 0 -19 -6 -22 -19
-107 -52 -107 -42 0 6 5 10 11 10 6 0 47 25 90 56 53 37 88 70 105 100 15 25
24 48 20 51 -3 3 -41 -27 -83 -68 -61 -58 -102 -86 -188 -130 -60 -31 -144
-66 -185 -78 -41 -12 -88 -27 -105 -33 -16 -6 -39 -11 -51 -12 -11 0 -27 -6
-35 -13 -8 -7 -33 -16 -54 -22 -22 -5 -65 -16 -95 -25 -148 -43 -436 -93 -730
-127 -98 -11 -458 -27 -805 -36 -258 -6 -473 7 -486 29 -9 14 -159 28 -159 16
0 -5 23 -8 50 -8 29 0 50 -5 50 -11 0 -31 -746 35 -976 86 -60 14 -118 25
-128 25 -11 0 -92 17 -181 39 -88 21 -187 44 -220 51 -33 6 -71 19 -85 28 -14
9 -29 15 -35 14 -5 -2 -34 4 -65 13 -235 72 -378 145 -484 248 -38 37 -71 65
-73 63 -8 -7 17 -55 46 -88 16 -19 64 -56 105 -83 42 -27 74 -50 72 -52 -5 -5
-94 36 -101 47 -3 6 -11 10 -16 10 -21 0 4 -21 86 -70 47 -28 85 -53 85 -55 0
-4 -97 33 -131 51 -33 17 -43 18 -34 4 4 -6 42 -28 85 -50 43 -22 81 -44 84
-49 9 -14 -50 4 -114 36 -75 38 -77 39 -61 19 20 -24 -1 -45 -24 -26 -29 24
-73 95 -84 135 -5 22 -20 164 -31 315 -12 151 -28 345 -36 430 -8 85 -21 236
-29 335 -8 99 -17 191 -20 205 -3 14 -9 90 -15 170 -5 80 -17 228 -25 330 -8
102 -19 255 -25 340 -27 431 -52 733 -65 805 -17 90 -34 249 -70 660 -13 154
-29 327 -34 385 -6 58 -15 177 -20 265 -14 225 -19 290 -38 455 -8 80 -17 188
-19 240 -2 52 -5 113 -7 135 -2 22 -7 90 -11 150 -4 61 -15 148 -23 195 -9 47
-17 103 -20 125 -58 541 -93 918 -118 1290 -21 312 -43 579 -60 730 -8 72 -19
191 -24 265 -13 166 -36 428 -56 620 -54 530 -78 831 -70 884 8 48 32 90 74
130 l31 29 16 -39 c22 -51 50 -191 41 -200 -10 -10 -48 26 -62 60 -9 21 -9 38
-2 61 13 43 3 72 -18 55 -25 -21 -29 -77 -10 -121 52 -113 351 -269 689 -359
150 -40 622 -125 886 -160 782 -104 1794 -129 2660 -64 592 43 978 104 1449
226 195 50 510 158 605 207 112 57 203 117 217 142 13 24 4 24 -38 -2 -19 -12
-35 -20 -36 -18 -2 2 -15 43 -31 91 -15 48 -41 104 -57 125 -16 21 -29 48 -29
60 0 21 2 20 82 -13 53 -22 97 -48 124 -75z m-5339 21 l-22 -39 23 -23 c28
-28 52 -17 64 30 7 27 13 32 38 32 17 0 30 -2 30 -4 0 -2 3 -11 6 -20 5 -13 1
-15 -24 -10 -21 4 -31 2 -35 -10 -8 -19 18 -46 43 -46 24 0 34 -16 18 -27 -23
-14 -68 -9 -68 8 0 25 -12 30 -30 14 -16 -14 -20 -12 -54 25 -20 22 -42 40
-50 40 -8 0 -17 4 -20 9 -7 12 40 54 53 47 5 -4 12 -2 16 4 3 5 12 10 20 10
10 0 8 -10 -8 -40z m1761 18 c-5 -13 -98 -41 -106 -33 -6 5 77 43 96 44 8 1
12 -5 10 -11z m-1118 -58 c0 -5 -13 -10 -30 -10 -16 0 -30 5 -30 10 0 6 14 10
30 10 17 0 30 -4 30 -10z m2333 -33 c-9 -50 -23 -56 -23 -11 0 42 7 57 21 48
5 -2 6 -19 2 -37z m-2253 13 c0 -5 -2 -10 -4 -10 -3 0 -8 5 -11 10 -3 6 -1 10
4 10 6 0 11 -4 11 -10z m-769 -32 c5 -18 3 -31 -6 -38 -10 -8 -15 -3 -24 21
-15 43 -14 51 6 47 9 -2 20 -15 24 -30z m1749 2 c0 -5 -7 -7 -15 -4 -8 4 -15
8 -15 10 0 2 7 4 15 4 8 0 15 -4 15 -10z m-301 -28 c20 -15 74 -47 121 -71
105 -54 250 -140 250 -149 -1 -88 -23 -389 -31 -409 l-10 -26 -197 7 c-270 9
-332 15 -332 33 0 8 36 89 81 179 74 151 91 201 55 163 -8 -8 -52 -88 -99
-179 l-86 -165 -98 3 c-54 1 -101 6 -106 11 -4 4 -7 32 -5 62 l3 54 15 -29 c8
-16 21 -32 29 -34 19 -6 9 21 -60 170 -32 70 -59 134 -59 142 0 9 12 36 27 60
25 42 35 49 122 82 51 20 117 43 145 50 28 7 83 27 121 43 39 17 72 31 74 31
2 0 20 -13 40 -28z m-805 -18 c9 -3 16 -10 16 -14 0 -15 -88 -43 -113 -36 -23
5 -42 38 -29 50 7 8 106 8 126 0z m526 2 c0 -9 -131 -47 -147 -43 -12 2 -4 8
22 15 22 7 47 16 55 22 15 9 70 14 70 6z m-1090 -17 c0 -27 -54 -97 -63 -81
-2 4 -7 15 -11 26 -5 14 -2 17 9 12 12 -4 19 3 27 24 9 28 38 43 38 19z m3146
-17 c-17 -16 -18 -16 -5 5 7 12 15 20 18 17 3 -2 -3 -12 -13 -22z m-2398 -1
c13 -7 9 -12 -23 -26 -30 -12 -55 -15 -102 -10 -35 4 -63 10 -63 15 0 5 19 15
43 24 43 16 114 14 145 -3z m135 -10 c8 -8 -1 -11 -31 -11 -31 0 -42 -4 -42
-15 0 -10 10 -15 30 -15 17 0 30 -3 30 -6 0 -17 -57 -95 -72 -100 -35 -11 -38
7 -8 44 33 40 27 52 -27 52 -42 0 -51 16 -12 24 20 4 33 13 36 27 5 18 11 21
46 16 22 -3 44 -10 50 -16z m-790 -13 c-18 -18 -24 -19 -37 -9 -22 18 -11 31
27 31 l31 0 -21 -22z m3075 -57 c-5 -29 -7 -59 -4 -67 3 -8 2 -14 -1 -14 -9 0
-43 32 -43 40 0 10 52 102 55 98 2 -2 -1 -27 -7 -57z m-3128 30 c0 -14 -18
-23 -30 -16 -6 4 -8 11 -5 16 8 12 35 12 35 0z m125 -1 c3 -5 1 -10 -4 -10 -6
0 -11 5 -11 10 0 6 2 10 4 10 3 0 8 -4 11 -10z m2948 -15 c-3 -9 -8 -14 -10
-11 -3 3 -2 9 2 15 9 16 15 13 8 -4z m-2967 -25 c26 0 27 -1 10 -17 -9 -10
-23 -27 -31 -38 -14 -19 -14 -19 -15 7 0 26 -21 51 -27 32 -8 -21 -22 -38 -28
-32 -4 3 1 20 10 37 13 26 19 30 35 21 10 -5 31 -10 46 -10z m624 0 c0 -14
-83 -35 -122 -32 -41 3 -50 18 -18 30 28 10 140 12 140 2z m-753 -26 c6 -16
-22 -52 -33 -41 -9 9 5 57 17 57 5 0 12 -7 16 -16z m177 -39 c-7 -17 -20 -20
-28 -6 -7 10 3 21 20 21 8 0 11 -6 8 -15z m536 0 c0 -2 -15 -13 -34 -24 -49
-31 -66 -25 -29 9 19 17 39 27 48 24 8 -4 15 -8 15 -9z m70 -20 c0 -12 -53
-25 -78 -18 l-27 7 25 7 c30 9 80 11 80 4z m-710 -15 c0 -13 -49 -32 -67 -26
-19 8 -16 24 5 29 32 9 62 7 62 -3z m58 -21 c-2 -6 -8 -10 -13 -10 -5 0 -11 4
-13 10 -2 6 4 11 13 11 9 0 15 -5 13 -11z m94 -10 c22 0 33 -18 20 -31 -6 -6
-20 -4 -40 6 -40 21 -54 42 -21 32 13 -4 32 -8 41 -7z m498 -3 c-21 -21 -113
-65 -122 -60 -16 10 -7 41 15 52 35 17 49 20 87 21 30 1 32 -1 20 -13z m-670
-30 c0 -3 -4 -8 -10 -11 -5 -3 -10 -1 -10 4 0 6 5 11 10 11 6 0 10 -2 10 -4z
m267 -45 c17 -10 16 -10 -3 -11 -28 0 -48 25 -39 47 6 16 8 16 15 -4 5 -12 17
-26 27 -32z m4853 10 c-8 -5 -26 -12 -40 -15 l-25 -7 25 15 c14 9 32 15 40 15
13 0 13 -1 0 -8z m84 -11 c-14 -14 -144 -61 -144 -51 0 4 19 14 43 20 23 7 53
19 67 27 30 16 48 18 34 4z m-4891 -65 c-4 -15 -36 -12 -41 3 -3 9 3 13 19 10
13 -1 23 -7 22 -13z m57 -50 c0 -8 -4 -15 -9 -15 -13 0 -22 16 -14 24 11 11
23 6 23 -9z m-1042 -34 c42 -11 120 -29 172 -41 52 -11 106 -23 120 -26 17 -4
22 -2 15 5 -6 5 -71 26 -145 46 -74 20 -136 38 -140 42 -3 3 9 2 25 -2 106
-26 567 -117 658 -130 l47 -6 0 -95 c0 -91 -1 -94 -23 -94 -54 0 -544 94 -711
136 -87 22 -146 43 -124 44 14 0 403 -78 421 -85 9 -4 17 -3 17 3 0 5 -44 19
-97 31 -54 13 -123 29 -153 37 -30 9 -82 23 -114 32 -107 28 -43 23 99 -8 134
-30 279 -51 210 -31 -16 5 -73 19 -125 31 -158 37 -180 59 -30 30 159 -30 183
-33 176 -21 -4 6 -15 11 -24 11 -27 1 -287 66 -337 85 -25 10 -45 22 -45 27 0
6 7 7 16 4 8 -3 50 -15 92 -25z m4762 -151 c0 -65 -3 -81 -17 -88 -33 -17
-373 -78 -480 -87 l-68 -5 85 19 c47 10 102 21 123 25 20 4 37 11 37 16 0 10
-54 5 -182 -15 -43 -6 -78 -8 -78 -3 0 4 3 8 8 8 33 0 238 42 246 50 14 14 -8
13 -124 -5 -52 -8 -105 -15 -117 -15 -35 0 -27 17 10 23 164 29 217 40 217 47
0 5 -8 7 -17 5 -42 -9 -116 -15 -111 -9 3 3 35 12 69 20 35 8 69 22 76 30 7
10 54 22 135 35 67 11 125 22 127 25 2 2 17 4 33 4 l28 0 0 -80z m-392 15 c-9
-10 -108 -22 -108 -14 0 7 33 14 89 17 13 1 22 0 19 -3z m-155 -22 c-7 -2 -19
-2 -25 0 -7 3 -2 5 12 5 14 0 19 -2 13 -5z m-990 -80 c-7 -2 -21 -2 -30 0 -10
3 -4 5 12 5 17 0 24 -2 18 -5z m100 0 c-7 -2 -19 -2 -25 0 -7 3 -2 5 12 5 14
0 19 -2 13 -5z m-221 -10 c-40 -2 -103 -2 -140 0 -37 2 -4 3 73 3 77 0 107 -2
67 -3z m313 -23 c-3 -5 -24 -10 -46 -10 -24 0 -38 4 -34 10 3 6 24 10 46 10
24 0 38 -4 34 -10z m-130 -10 c-11 -5 -60 -8 -110 -8 -60 0 -82 3 -65 8 35 11
201 11 175 0z m-377 -7 c-10 -2 -26 -2 -35 0 -10 3 -2 5 17 5 19 0 27 -2 18
-5z m115 0 c-7 -2 -21 -2 -30 0 -10 3 -4 5 12 5 17 0 24 -2 18 -5z m357 -33
c-68 -12 -566 -24 -557 -14 8 9 253 19 487 21 85 0 103 -2 70 -7z m10 -40 c-8
-5 -53 -9 -100 -8 -67 1 -77 2 -45 8 64 11 163 11 145 0z m-250 -10 c-14 -4
-36 -8 -50 -9 -20 -1 -22 1 -10 9 8 5 31 9 50 9 32 -1 33 -2 10 -9z m-142 -7
c-32 -2 -84 -2 -115 0 -32 2 -6 3 57 3 63 0 89 -1 58 -3z m389 -30 c-20 -2
-52 -2 -70 0 -17 2 0 4 38 4 39 0 53 -2 32 -4z m-248 -7 c-11 -9 -99 -15 -99
-6 0 6 23 10 52 10 28 0 49 -2 47 -4z m118 -2 c-3 -3 -12 -4 -19 -1 -8 3 -5 6
6 6 11 1 17 -2 13 -5z m-2869 -8641 c42 -20 71 -38 64 -40 -13 -5 -128 45
-165 72 l-22 17 23 -7 c13 -4 58 -23 100 -42z m4721 -9 c-15 -18 -48 -36 -118
-64 -78 -31 -60 -7 22 29 39 17 79 36 87 41 22 13 24 12 9 -6z m-4156 -49 c-3
-17 -30 -17 -37 0 -4 13 -1 16 17 13 12 -2 21 -7 20 -13z m-8 -46 c10 -15 -1
-23 -20 -15 -9 3 -13 10 -10 16 8 13 22 13 30 -1z m0 -49 c3 -5 -1 -10 -9 -10
-9 0 -16 5 -16 10 0 6 4 10 9 10 6 0 13 -4 16 -10z m12 -56 c-7 -7 -37 7 -37
17 0 6 9 5 21 -1 11 -7 19 -14 16 -16z m2466 -101 c13 -128 16 -121 -55 -127
-142 -12 -620 -18 -614 -7 4 6 33 11 64 12 72 1 35 16 -48 19 l-55 2 40 9 c22
4 61 8 88 8 26 1 47 6 47 11 0 6 -34 10 -81 10 -51 0 -78 4 -74 10 3 5 37 10
75 10 79 0 109 19 33 21 -26 1 -61 5 -78 9 -25 6 -19 8 30 10 74 2 121 18 60
20 -22 1 -58 4 -80 9 -35 6 -27 8 54 14 52 4 169 8 260 8 91 1 195 5 231 9 36
4 72 8 81 8 13 2 17 -12 22 -65z"/>
<path d="M4107 11618 c-37 -123 -47 -170 -27 -137 16 28 87 248 82 254 -13 12
-20 -2 -55 -117z"/>
<path d="M3861 10902 c-24 -45 -61 -153 -61 -180 1 -36 11 -19 50 88 31 84 38
140 11 92z"/>
<path d="M5442 11926 c-18 -27 -39 -70 -47 -95 -9 -25 -66 -148 -127 -272 -61
-124 -109 -232 -106 -240 6 -17 238 437 238 466 0 11 18 53 41 94 46 85 47
119 1 47z"/>
<path d="M5022 11063 c-29 -41 -153 -295 -147 -302 8 -7 12 0 95 160 77 148
98 207 52 142z"/>
<path d="M2290 11642 c0 -10 70 -36 77 -29 5 6 -50 37 -67 37 -5 0 -10 -4 -10
-8z"/>
<path d="M2275 11601 c7 -12 75 -35 82 -28 3 3 -12 13 -32 21 -43 18 -59 20
-50 7z"/>
<path d="M2037 11543 c-8 -10 -19 -31 -23 -47 -6 -24 -8 -26 -16 -11 -6 9 -8
25 -5 36 9 34 -58 38 -163 9 -60 -17 -82 -37 -75 -69 3 -14 1 -32 -3 -39 -15
-23 18 -99 69 -159 123 -147 169 -200 228 -264 61 -65 65 -68 82 -53 14 13 22
14 32 6 17 -15 61 -121 53 -129 -3 -4 -20 6 -36 22 -46 44 -36 22 18 -39 26
-30 56 -69 67 -88 11 -18 37 -42 58 -53 20 -11 37 -27 37 -36 0 -17 72 -89 89
-89 4 0 16 -20 26 -45 24 -65 130 -134 110 -72 -4 12 -11 49 -15 82 -10 66
-22 104 -70 210 -22 50 -30 60 -26 36 3 -18 22 -68 41 -111 24 -53 35 -92 35
-124 0 -26 5 -56 10 -67 16 -29 -8 -24 -42 8 -35 34 -37 56 -4 47 l24 -6 -29
58 c-18 34 -29 73 -29 98 -1 23 -7 52 -15 66 -17 30 -19 19 -4 -34 17 -63 -3
-68 -56 -16 -41 40 -45 49 -45 92 0 26 2 48 5 48 14 0 65 -32 65 -40 0 -6 5
-10 10 -10 21 0 9 22 -21 38 -72 39 -81 53 -89 133 -4 41 -6 75 -5 77 2 2 26
-18 53 -43 33 -30 59 -66 73 -101 12 -29 26 -51 30 -48 32 20 69 -61 69 -151
0 -19 4 -36 9 -40 5 -3 12 -19 16 -35 5 -21 12 -30 23 -28 20 4 26 -22 17 -70
l-8 -37 -13 35 -14 35 6 -45 c4 -28 14 -51 27 -61 24 -19 17 -55 -9 -45 -26
10 -37 -4 -18 -25 23 -26 50 -24 58 4 9 36 -13 305 -33 392 -30 130 -42 207
-46 287 -2 42 -8 84 -13 94 -6 11 -13 42 -17 69 -4 28 -12 58 -17 69 -6 10
-13 39 -17 64 -3 25 -11 47 -18 49 -7 3 -10 -4 -7 -19 4 -17 3 -19 -4 -8 -5 8
-13 31 -17 50 -10 51 -32 80 -60 80 -13 0 -27 -5 -31 -11 -4 -8 -12 -3 -20 14
-18 34 -50 44 -73 23 -17 -16 -19 -15 -35 9 -11 17 -25 25 -46 25 -17 0 -30
-3 -30 -7 0 -5 -4 -14 -9 -22 -8 -12 -16 -9 -46 17 -41 37 -46 38 -68 15z
m-86 -32 c27 -27 29 -35 29 -106 0 -84 -4 -86 -49 -22 -35 52 -51 105 -40 135
11 29 25 28 60 -7z m154 -18 c14 -28 16 -50 11 -102 -4 -36 -9 -67 -11 -70
-19 -19 -75 90 -75 145 0 71 46 88 75 27z m111 2 c19 -29 13 -95 -13 -155
l-15 -35 -14 50 c-25 87 -16 165 17 165 5 0 16 -11 25 -25z m-361 -69 c8 -43
2 -106 -10 -109 -14 -3 -64 102 -64 135 -1 16 6 31 17 37 22 13 49 -16 57 -63z
m471 39 c24 -58 14 -155 -16 -155 -29 0 -52 130 -30 171 16 28 29 23 46 -16z
m94 -24 c13 -26 13 -138 -1 -147 -18 -11 -50 30 -56 72 -9 71 30 124 57 75z
m-509 -63 c41 -48 61 -101 66 -174 4 -44 2 -74 -4 -74 -12 0 -67 59 -82 87
-11 22 -16 183 -5 183 3 0 14 -10 25 -22z m144 -40 c38 -59 40 -66 38 -132 -1
-38 -6 -73 -11 -78 -11 -11 -58 62 -72 114 -12 39 -13 158 -2 158 4 -1 25 -29
47 -62z m-245 1 c12 -23 19 -43 17 -45 -8 -8 -47 48 -47 67 0 29 8 23 30 -22z
m474 -31 c32 -81 43 -142 28 -152 -13 -8 -54 28 -84 74 l-23 34 19 58 c10 32
22 58 26 58 3 0 19 -32 34 -72z m-113 -6 c16 -49 20 -79 15 -106 -9 -48 -25
-42 -49 17 -15 36 -18 59 -12 102 3 30 10 55 15 55 5 0 19 -31 31 -68z m200
-14 c7 -13 20 -28 29 -35 25 -18 37 -133 16 -149 -15 -10 -15 -15 -1 -47 17
-42 20 -83 5 -92 -15 -9 -66 35 -85 73 -23 46 -6 187 18 145 2 -5 2 -1 0 7 -3
8 -7 39 -10 68 -6 56 7 70 28 30z m118 -29 c22 -51 26 -125 6 -123 -17 2 -55
77 -55 111 0 36 8 63 20 63 4 0 17 -23 29 -51z m-184 -184 c-3 -17 -1 -53 4
-80 5 -28 6 -54 1 -58 -10 -11 -86 57 -112 98 -21 35 -24 22 -3 -15 16 -28 20
-70 6 -70 -4 0 -29 22 -55 50 -40 43 -46 54 -45 92 1 56 9 98 18 98 5 0 20
-25 34 -56 l25 -57 12 59 c7 33 15 63 17 68 3 5 28 -16 54 -45 41 -46 48 -59
44 -84z m-229 -24 c19 -40 34 -75 34 -78 0 -12 -64 37 -90 69 -31 38 -34 53
-24 107 l7 32 19 -28 c11 -15 35 -61 54 -102z m423 47 c45 -56 60 -93 43 -110
-15 -15 -57 13 -75 50 -18 35 -30 112 -18 112 5 0 28 -23 50 -52z m22 -163
c18 -31 29 -64 29 -88 0 -34 -2 -37 -19 -28 -10 6 -34 29 -52 52 -27 35 -34
52 -37 103 l-4 61 27 -25 c15 -14 40 -47 56 -75z m-209 -64 c25 -58 33 -101
20 -101 -16 0 -83 79 -98 117 -8 19 -12 43 -9 54 6 19 7 19 37 -2 16 -12 39
-42 50 -68z m-26 -78 c43 -41 84 -98 84 -118 0 -13 -40 -3 -64 16 -28 22 -76
107 -76 134 0 8 1 15 3 15 1 0 26 -21 53 -47z m303 -35 c25 -72 26 -202 1
-157 -14 24 -42 168 -35 179 11 18 23 10 34 -22z m-149 -144 c22 -20 40 -43
40 -50 0 -17 -4 -17 -38 0 -39 20 -64 50 -56 70 8 21 8 21 54 -20z"/>
<path d="M1276 11471 c-10 -11 -13 -21 -7 -25 12 -8 43 22 36 35 -8 12 -9 12
-29 -10z"/>
<path d="M1383 11462 c-18 -11 -63 -114 -63 -142 1 -17 13 1 41 58 40 83 44
97 22 84z"/>
<path d="M1255 11379 c-8 -23 -1 -34 14 -24 13 8 15 45 2 45 -5 0 -13 -9 -16
-21z"/>
<path d="M2890 11360 c35 -30 50 -36 50 -22 0 9 -63 52 -76 52 -5 0 7 -14 26
-30z"/>
<path d="M2770 11365 c0 -3 28 -19 63 -37 80 -42 81 -43 73 -29 -16 26 -136
84 -136 66z"/>
<path d="M1381 11314 c0 -11 3 -14 6 -6 3 7 2 16 -1 19 -3 4 -6 -2 -5 -13z"/>
<path d="M1178 11303 c7 -3 16 -2 19 1 4 3 -2 6 -13 5 -11 0 -14 -3 -6 -6z"/>
<path d="M1417 11297 c-11 -29 -9 -43 4 -30 6 6 9 19 7 29 -3 18 -4 18 -11 1z"/>
<path d="M1230 11284 c0 -17 22 -14 28 4 2 7 -3 12 -12 12 -9 0 -16 -7 -16
-16z"/>
<path d="M1525 11271 c-3 -10 -1 -31 5 -47 9 -24 8 -31 -8 -44 -32 -25 -37
-69 -11 -96 l22 -24 -34 0 c-44 -1 -21 -15 39 -24 24 -4 63 -16 85 -28 l42
-21 -19 21 c-17 20 -17 22 -2 28 34 13 237 -112 210 -128 -15 -10 -112 26
-137 51 -24 22 -50 30 -29 9 25 -25 10 -30 -87 -26 -79 3 -98 1 -94 -10 3 -7
0 -12 -7 -10 -24 6 -35 -28 -21 -69 11 -34 11 -45 -4 -79 l-16 -39 30 -26 c25
-21 31 -33 31 -66 0 -25 8 -50 20 -66 16 -20 19 -34 14 -66 -6 -39 -5 -42 25
-52 25 -9 31 -17 31 -39 0 -22 6 -30 31 -39 18 -6 48 -11 68 -11 21 0 41 -4
47 -9 13 -11 125 -41 156 -41 30 0 207 -51 299 -87 57 -21 84 -25 178 -26 61
0 114 3 118 6 3 4 15 7 25 7 23 0 23 4 -3 40 -12 15 -27 26 -34 23 -17 -6 -64
19 -89 46 -29 32 -14 35 29 6 37 -26 59 -29 30 -5 -21 18 -19 33 3 21 41 -22
102 -91 102 -117 0 -14 4 -23 10 -19 25 16 6 52 -65 124 -41 42 -93 95 -115
119 -23 23 -46 42 -53 42 -6 0 12 -24 41 -53 48 -49 64 -77 43 -77 -5 0 -35
28 -66 62 -35 38 -55 53 -51 40 10 -32 -21 -29 -70 6 -49 36 -59 49 -68 87 -4
16 -20 47 -36 69 -16 21 -27 43 -24 47 2 4 -18 29 -46 55 -35 32 -49 52 -45
64 4 14 -2 19 -27 24 -18 3 -47 15 -65 25 -33 20 -99 108 -89 118 3 4 24 1 46
-6 37 -11 59 -30 136 -112 17 -19 46 -45 63 -58 48 -36 87 -97 72 -115 -9 -11
-9 -16 0 -21 6 -4 15 -2 19 6 10 15 20 8 83 -50 43 -40 52 -80 15 -60 -13 6
-40 27 -60 47 -34 33 -49 35 -30 5 16 -26 98 -83 120 -83 12 0 22 2 22 5 0 24
-49 91 -96 131 -30 26 -69 67 -85 90 -16 24 -48 57 -72 74 -23 17 -55 51 -72
75 -17 25 -48 54 -70 66 -30 16 -46 33 -58 64 -11 26 -58 82 -128 153 -104
105 -113 112 -150 112 -24 0 -38 -4 -34 -10 3 -5 19 -10 35 -10 21 0 44 -14
86 -53 68 -63 67 -83 -5 -72 -87 13 -148 65 -137 117 6 31 -9 39 -19 9z m101
-152 c92 -60 97 -69 38 -69 -101 0 -162 35 -150 85 9 36 39 32 112 -16z m138
-6 c50 -18 85 -54 105 -106 9 -22 8 -27 -6 -27 -35 0 -193 116 -193 142 0 13
42 9 94 -9z m-14 -225 c35 -18 66 -39 68 -45 5 -18 -62 -16 -113 2 -50 18 -55
18 -31 0 11 -8 17 -17 15 -20 -3 -3 -39 -6 -81 -7 -63 -3 -79 0 -97 16 -21 19
-28 60 -12 70 4 3 39 -3 77 -14 53 -15 64 -16 50 -5 -11 8 -26 15 -33 15 -7 0
-13 5 -13 10 0 6 24 10 53 10 40 0 68 -8 117 -32z m178 -56 c83 -55 113 -85
100 -97 -12 -13 -141 62 -196 114 l-57 54 34 -6 c19 -4 72 -33 119 -65z m-35
-59 c66 -45 106 -87 94 -100 -7 -7 -101 45 -161 90 -24 17 -52 37 -62 44 -17
10 -14 12 20 12 31 1 54 -9 109 -46z m-127 11 c19 -9 37 -21 40 -26 9 -13 -15
-28 -45 -28 -26 0 -131 49 -131 62 0 14 101 8 136 -8z m-167 -9 c54 -14 102
-48 88 -62 -4 -4 -42 -7 -84 -8 -70 0 -77 2 -96 27 -11 14 -17 34 -14 42 8 20
36 20 106 1z m501 -123 c44 -38 64 -72 43 -72 -35 0 -153 110 -153 143 0 13
55 -23 110 -71z m-251 57 c24 -5 64 -24 89 -41 26 -18 56 -31 67 -30 11 1 34
-10 50 -24 21 -18 24 -24 10 -19 -48 17 -55 17 -55 1 0 -19 5 -19 -58 -1 -46
14 -153 69 -190 98 -11 9 -11 12 5 18 25 10 31 10 82 -2z m256 -19 c3 -5 2
-10 -4 -10 -5 0 -13 5 -16 10 -3 6 -2 10 4 10 5 0 13 -4 16 -10z m-355 -20
c37 -11 75 -29 84 -39 17 -19 16 -20 -28 -26 -43 -7 -51 -4 -102 31 -30 21
-58 42 -60 46 -9 14 37 9 106 -12z m-83 -27 c21 -11 37 -24 36 -28 -2 -12
-114 -47 -130 -41 -22 9 -45 54 -38 77 6 19 13 21 50 16 24 -2 61 -13 82 -24z
m317 -101 c53 -40 82 -77 68 -86 -4 -2 -31 6 -59 18 -35 17 -59 37 -82 70 -17
26 -31 49 -31 51 0 11 61 -20 104 -53z m-125 33 c16 -8 31 -21 34 -30 5 -12
-5 -15 -61 -16 -52 -1 -60 -3 -37 -9 17 -4 51 -8 77 -9 33 -1 51 -6 60 -19 7
-11 30 -27 51 -37 60 -28 122 -95 88 -95 -27 0 -83 34 -91 55 -25 65 -145 102
-237 72 -106 -34 -154 -32 -175 6 -17 32 15 49 82 45 30 -3 64 -8 74 -13 14
-6 17 -5 12 3 -4 6 -25 16 -48 22 -67 19 -28 33 100 38 24 1 56 -5 71 -13z
m246 -23 c39 -27 75 -76 64 -86 -10 -10 -71 16 -127 52 -52 35 -56 46 -17 55
35 8 39 7 80 -21z m59 -15 c15 -19 26 -42 25 -53 0 -14 -2 -15 -6 -4 -3 8 -22
32 -41 53 -26 27 -31 37 -20 37 10 0 28 -15 42 -33z m-262 -68 c37 -19 67 -50
61 -64 -3 -9 22 -26 75 -51 75 -33 102 -56 83 -68 -4 -3 -33 5 -65 16 -41 15
-61 29 -72 49 -14 27 -62 49 -109 49 -11 0 -26 9 -33 20 -7 11 -17 20 -23 20
-8 0 -8 -4 0 -13 18 -22 2 -27 -91 -27 -71 0 -90 3 -95 16 -10 26 11 35 88 36
41 0 68 2 62 5 -27 10 -11 18 42 21 30 2 65 -2 77 -9z m356 -30 c-5 -4 14 -19
43 -35 55 -30 77 -64 41 -64 -24 0 -127 52 -166 83 l-28 23 38 0 c21 0 39 5
42 12 2 8 8 8 22 -1 12 -7 15 -14 8 -18z m-135 0 c39 -21 97 -71 92 -79 -6
-10 -85 7 -110 25 -56 40 -61 45 -45 55 20 13 37 12 63 -1z m247 -39 c0 -5 -2
-10 -4 -10 -3 0 -8 5 -11 10 -3 6 -1 10 4 10 6 0 11 -4 11 -10z m-448 -20 c48
-14 56 -27 22 -40 -20 -8 -44 -5 -104 12 -43 12 -76 26 -74 30 7 11 112 10
156 -2z m276 -69 c20 -10 48 -31 62 -46 l25 -27 -35 7 c-50 11 -85 30 -104 59
-15 23 -15 26 -1 26 9 0 32 -9 53 -19z m131 -18 c22 -15 44 -36 51 -46 10 -17
8 -17 -27 -11 -42 7 -75 28 -113 69 l-25 28 38 -6 c20 -3 55 -18 76 -34z m79
-3 c50 -26 88 -57 80 -65 -9 -9 -79 29 -107 59 -29 31 -23 33 27 6z"/>
<path d="M2675 11256 c-24 -36 -29 -88 -15 -146 7 -28 14 -104 16 -168 3 -128
19 -263 34 -302 6 -14 14 -59 19 -100 5 -41 14 -88 20 -103 6 -16 8 -33 5 -39
-3 -5 0 -37 7 -70 21 -94 59 -101 124 -22 20 24 51 51 68 58 18 8 61 39 97 69
62 52 66 58 79 118 23 106 40 140 79 156 19 8 36 13 38 11 1 -2 -1 -21 -6 -42
-5 -25 -24 -55 -51 -82 -24 -24 -40 -47 -36 -51 4 -3 13 -1 19 5 7 7 18 12 24
12 7 0 42 18 77 40 66 42 108 97 106 141 -1 20 -2 18 -10 -9 -10 -33 -87 -122
-107 -122 -13 0 -5 64 14 102 8 14 27 37 44 50 l31 24 -26 24 c-14 13 -25 18
-25 12 0 -31 -118 -117 -136 -99 -10 10 18 52 59 89 30 27 37 37 25 38 -13 0
-18 8 -18 28 0 38 -30 65 -63 57 -22 -6 -24 -4 -20 18 6 31 -22 61 -51 52 -41
-12 -51 -10 -54 12 -3 21 -49 63 -69 63 -4 0 -21 16 -38 35 -16 19 -37 35 -47
35 -11 0 -18 10 -20 28 -3 23 -9 28 -49 36 -34 7 -49 15 -62 37 -21 37 -60 39
-82 5z m73 -19 c8 -10 5 -26 -12 -62 -28 -62 -53 -85 -62 -60 -7 18 1 109 11
125 9 14 51 12 63 -3z m92 -47 c13 -8 11 -17 -13 -64 -16 -30 -37 -62 -47 -71
-17 -15 -18 -15 -25 13 -8 39 11 108 33 121 21 13 33 13 52 1z m-109 -161
c-13 -44 -26 -50 -35 -16 -10 39 -6 70 11 89 17 19 18 19 26 -7 6 -18 5 -41
-2 -66z m184 78 c22 -17 16 -64 -16 -108 -39 -56 -69 -24 -49 53 12 43 26 68
39 68 4 0 15 -6 26 -13z m-80 -54 c-9 -30 -31 -68 -55 -94 l-40 -44 2 50 c3
41 6 50 21 49 11 -1 24 11 33 30 18 34 45 68 51 63 1 -2 -4 -26 -12 -54z m145
3 c0 -11 -53 -117 -61 -122 -5 -3 -21 -23 -35 -45 -21 -34 -54 -53 -54 -31 0
28 23 82 35 82 8 0 27 19 42 43 34 54 54 77 65 77 4 0 8 -2 8 -4z m35 -79 c-9
-19 -27 -45 -41 -58 l-24 -22 0 32 c0 33 24 91 44 103 6 4 17 1 25 -6 11 -12
10 -19 -4 -49z m105 -2 c11 -13 11 -20 0 -40 -24 -45 -120 -97 -120 -65 0 22
30 68 60 94 37 30 43 31 60 11z m-295 -44 c-8 -36 -25 -41 -25 -8 0 22 19 51
28 43 2 -3 1 -18 -3 -35z m-109 -18 c-10 -10 -19 5 -10 18 6 11 8 11 12 0 2
-7 1 -15 -2 -18z m74 -12 c0 -11 5 -23 11 -26 20 -13 -16 -115 -41 -115 -13 0
-13 116 0 141 14 25 30 25 30 0z m414 -13 c8 -13 6 -21 -7 -36 -20 -22 -94
-58 -103 -49 -19 18 55 111 84 105 8 -2 20 -11 26 -20z m-313 -75 c-29 -85
-55 -133 -71 -133 -13 0 -13 61 0 95 9 24 91 127 96 122 2 -1 -10 -39 -25 -84z
m-165 30 c-7 -52 -10 -58 -25 -48 -12 7 -15 78 -4 88 3 4 13 7 21 7 12 0 13
-9 8 -47z m259 20 c-3 -16 -18 -40 -33 -55 -28 -31 -58 -38 -48 -12 3 9 6 20
6 25 0 12 61 69 73 69 5 0 6 -12 2 -27z m92 -40 c-6 -43 -62 -102 -79 -85 -15
15 9 78 39 102 37 29 45 25 40 -17z m92 -45 c-7 -12 -15 -36 -19 -53 -4 -22
-17 -36 -48 -53 -23 -13 -42 -30 -42 -39 0 -16 -56 -73 -72 -73 -18 0 -3 108
18 137 26 35 48 43 40 14 -3 -11 -9 -30 -12 -41 -3 -11 -1 -20 4 -20 6 0 13
12 17 28 11 46 45 92 83 111 43 22 48 21 31 -11z m-209 -57 c-12 -45 -54 -101
-76 -101 -17 0 -17 41 -1 87 14 37 80 90 85 68 2 -8 -2 -32 -8 -54z m-217 17
c6 -22 6 -22 28 -2 l22 19 -5 -63 c-3 -39 -10 -69 -20 -79 -15 -15 -18 -13
-33 23 -9 21 -19 51 -22 66 -10 49 18 82 30 36z m223 -94 c-4 -14 -11 -57 -15
-95 -10 -72 -23 -99 -49 -99 -18 0 -12 63 11 109 9 17 11 33 6 36 -7 5 39 75
50 75 2 0 0 -12 -3 -26z m159 -29 c-7 -43 -45 -105 -65 -105 -12 0 29 121 48
143 21 24 25 16 17 -38z m-262 -80 c-27 -73 -43 -70 -43 9 0 35 5 77 11 93
l11 28 19 -41 c19 -40 19 -42 2 -89z m-66 63 c-3 -8 -6 -5 -6 6 -1 11 2 17 5
13 3 -3 4 -12 1 -19z m-13 -93 c-12 -50 -28 -45 -35 10 -4 35 -1 48 10 55 23
13 35 -20 25 -65z m251 28 c-17 -41 -40 -70 -68 -85 -27 -14 -29 -6 -10 41 15
35 60 78 86 80 4 1 0 -16 -8 -36z m-162 -59 c3 -3 -3 -28 -14 -55 -23 -60 -24
-79 -4 -79 18 0 19 -14 5 -41 -15 -26 -43 -26 -35 1 7 23 -4 26 -24 8 -7 -7
-1 10 13 39 14 29 26 63 25 75 0 17 -6 10 -21 -25 -25 -57 -44 -56 -41 2 2 50
18 74 44 66 9 -3 20 -1 24 5 7 11 19 13 28 4z m137 -44 c0 -8 -51 -40 -65 -40
-14 0 -2 17 23 32 31 20 42 22 42 8z m-100 -14 c0 -18 -37 -63 -45 -54 -8 8
22 68 35 68 6 0 10 -6 10 -14z"/>
<path d="M1207 11223 c-16 -15 -6 -34 15 -31 29 4 38 38 10 38 -10 0 -22 -3
-25 -7z"/>
<path d="M1133 11206 c-13 -6 -23 -14 -23 -18 0 -12 48 -9 56 3 10 17 -9 26
-33 15z"/>
<path d="M1200 11140 c-11 -7 -12 -12 -3 -21 15 -15 43 -5 43 16 0 17 -18 19
-40 5z"/>
<path d="M1145 11130 c3 -5 8 -10 11 -10 2 0 4 5 4 10 0 6 -5 10 -11 10 -5 0
-7 -4 -4 -10z"/>
<path d="M1080 11096 c0 -9 7 -16 16 -16 17 0 14 22 -4 28 -7 2 -12 -3 -12
-12z"/>
<path d="M1182 11064 c-17 -11 -26 -13 -36 -5 -7 6 -16 8 -19 4 -13 -12 -7
-32 13 -43 16 -8 26 -7 42 5 13 8 30 15 40 15 22 0 24 26 2 34 -20 8 -16 9
-42 -10z"/>
<path d="M1460 11003 c0 -11 7 -27 16 -34 15 -12 16 -11 9 11 -10 35 -25 49
-25 23z"/>
<path d="M1044 10989 c-10 -17 13 -36 27 -22 12 12 4 33 -11 33 -5 0 -12 -5
-16 -11z"/>
<path d="M1147 10984 c-3 -4 0 -16 8 -28 8 -11 14 -25 14 -31 -1 -17 21 -17
27 -1 10 26 -5 66 -25 66 -10 0 -20 -3 -24 -6z"/>
<path d="M1212 10948 c2 -13 8 -23 13 -23 6 0 11 10 13 23 2 15 -2 22 -13 22
-11 0 -15 -7 -13 -22z"/>
<path d="M1090 10873 c0 -19 20 -26 35 -13 22 18 18 28 -10 26 -14 0 -25 -6
-25 -13z"/>
<path d="M3370 10830 c59 -52 78 -51 23 0 -23 22 -48 40 -55 40 -7 -1 7 -19
32 -40z"/>
<path d="M1217 10839 c-5 -19 -11 -21 -41 -16 -20 3 -38 2 -41 -3 -14 -23 75
-41 101 -20 18 16 19 60 0 60 -7 0 -16 -10 -19 -21z"/>
<path d="M1063 10795 c-3 -9 -3 -18 0 -22 10 -10 37 6 37 22 0 20 -29 20 -37
0z"/>
<path d="M1260 10760 c0 -10 -9 -24 -20 -30 -28 -15 -26 -40 4 -40 26 0 53 47
42 75 -8 22 -26 19 -26 -5z"/>
<path d="M1175 10740 c-3 -5 -1 -10 4 -10 6 0 11 5 11 10 0 6 -2 10 -4 10 -3
0 -8 -4 -11 -10z"/>
<path d="M1086 10691 c-8 -13 3 -38 20 -45 24 -9 64 12 64 34 0 23 -3 24 -31
8 -17 -10 -23 -10 -26 0 -5 14 -19 16 -27 3z"/>
<path d="M1243 10654 c-14 -37 30 -61 56 -30 10 11 6 17 -19 30 -27 13 -32 13
-37 0z"/>
<path d="M1184 10614 c-3 -12 -15 -26 -27 -32 -21 -10 -21 -11 5 -11 31 -1 52
27 37 50 -7 11 -10 10 -15 -7z"/>
<path d="M1290 10569 c0 -15 -5 -19 -15 -15 -19 7 -20 -17 -1 -33 30 -25 71
24 46 54 -18 21 -30 18 -30 -6z"/>
<path d="M1162 10507 c-36 -11 -41 -39 -9 -45 21 -4 57 24 57 45 0 15 -3 15
-48 0z"/>
<path d="M1360 10360 c-8 -5 -25 -7 -36 -4 -12 3 -25 1 -28 -5 -4 -6 -16 -11
-26 -11 -25 0 -35 -17 -20 -35 10 -13 17 -13 46 0 31 13 37 12 69 -7 29 -16
38 -18 50 -8 25 21 18 41 -12 38 -24 -3 -28 0 -26 20 3 25 3 25 -17 12z"/>
<path d="M1480 10361 c0 -6 12 -40 26 -75 17 -44 37 -73 60 -91 19 -14 34 -22
34 -16 0 26 -22 62 -42 70 -16 6 -29 26 -42 60 -17 48 -36 75 -36 52z"/>
<path d="M2520 10180 c0 -5 11 -10 24 -10 14 0 28 5 31 10 4 6 -7 10 -24 10
-17 0 -31 -4 -31 -10z"/>
<path d="M2826 10142 c-3 -6 -1 -14 5 -17 15 -10 25 3 12 16 -7 7 -13 7 -17 1z"/>
<path d="M2843 10105 c-8 -22 6 -33 17 -15 13 20 12 30 0 30 -6 0 -13 -7 -17
-15z"/>
<path d="M2880 10085 c-18 -21 -3 -32 16 -13 10 9 12 18 6 22 -5 3 -15 -1 -22
-9z"/>
<path d="M2895 10040 c-3 -5 -2 -10 4 -10 5 0 13 5 16 10 3 6 2 10 -4 10 -5 0
-13 -4 -16 -10z"/>
<path d="M2088 9703 c-50 -41 -60 -63 -28 -63 12 0 24 -10 30 -22 8 -21 9 -21
9 -3 1 11 10 35 22 54 11 18 19 42 17 52 -3 17 -9 15 -50 -18z"/>
<path d="M2143 9615 c-18 -30 -27 -55 -22 -55 21 0 69 59 69 84 0 39 -13 32
-47 -29z"/>
<path d="M1920 9594 c0 -5 21 -30 46 -54 26 -25 42 -36 36 -25 -13 26 -82 92
-82 79z"/>
<path d="M3637 10761 c-54 -56 -68 -81 -48 -81 5 0 15 9 22 19 8 10 32 40 53
65 57 68 38 66 -27 -3z"/>
<path d="M3647 10702 c-46 -47 -56 -62 -38 -62 11 0 95 99 89 105 -2 3 -25
-17 -51 -43z"/>
<path d="M888 10547 c-50 -75 -69 -115 -59 -122 8 -4 111 152 111 169 0 19
-21 0 -52 -47z"/>
<path d="M903 10453 c-61 -83 -67 -93 -55 -93 5 0 32 30 59 68 61 82 67 92 55
92 -5 0 -32 -30 -59 -67z"/>
<path d="M951 10404 c-34 -39 -54 -84 -36 -84 8 0 87 121 82 126 -2 3 -23 -16
-46 -42z"/>
<path d="M710 10414 c0 -22 85 -124 103 -124 10 0 -47 81 -79 111 -13 12 -24
18 -24 13z"/>
<path d="M700 10312 c0 -14 49 -56 57 -49 3 4 -4 18 -17 32 -24 25 -40 32 -40
17z"/>
<path d="M355 10265 c3 -38 12 -116 18 -172 l12 -101 53 -42 c28 -23 52 -46
52 -51 0 -5 5 -9 10 -9 23 0 7 29 -45 80 -59 59 -58 55 -76 220 -13 126 -34
192 -24 75z"/>
<path d="M413 10303 c3 -10 8 -40 12 -68 12 -100 38 -215 48 -215 5 0 7 10 3
23 -3 12 -11 54 -16 92 -17 120 -32 185 -42 185 -5 0 -7 -8 -5 -17z"/>
<path d="M490 10243 c0 -40 27 -193 35 -202 12 -11 12 11 -1 109 -7 58 -13
111 -14 118 0 6 -4 12 -10 12 -5 0 -10 -17 -10 -37z"/>
<path d="M545 10203 c11 -61 25 -113 32 -113 6 0 -5 113 -14 136 -11 29 -24
13 -18 -23z"/>
<path d="M840 10028 c0 -100 12 -228 21 -228 11 0 11 73 3 198 -8 104 -24 124
-24 30z"/>
<path d="M897 10043 c-11 -11 -8 -233 3 -233 6 0 10 47 10 120 0 66 -1 120 -3
120 -2 0 -7 -3 -10 -7z"/>
<path d="M944 9997 c-2 -7 -1 -49 4 -93 l9 -79 2 93 c1 87 -3 109 -15 79z"/>
<path d="M1010 9885 c0 -55 4 -84 10 -80 6 3 10 39 10 80 0 41 -4 77 -10 80
-6 4 -10 -25 -10 -80z"/>
<path d="M740 9872 c0 -5 21 -27 46 -48 26 -21 45 -32 42 -24 -6 18 -88 85
-88 72z"/>
<path d="M733 9803 c9 -9 20 -13 24 -9 4 4 1 11 -7 16 -25 16 -35 11 -17 -7z"/>
<path d="M1245 9790 c-3 -5 1 -10 10 -10 9 0 13 5 10 10 -3 6 -8 10 -10 10 -2
0 -7 -4 -10 -10z"/>
<path d="M1253 9753 c-14 -5 -18 -23 -5 -23 5 0 17 7 28 15 14 11 15 14 4 14
-8 0 -21 -3 -27 -6z"/>
<path d="M1411 9659 c-33 -14 -41 -23 -33 -31 8 -8 26 -5 67 12 30 12 58 26
61 31 9 16 -50 8 -95 -12z"/>
<path d="M1460 9615 c-7 -9 -10 -18 -7 -21 7 -8 47 14 47 26 0 15 -26 12 -40
-5z"/>
<path d="M6480 10230 c0 -25 42 -68 80 -84 50 -20 51 -27 3 -19 l-37 6 24 -30
c22 -27 27 -29 41 -17 21 19 35 18 43 -3 10 -25 30 1 22 30 -9 38 -46 78 -90
97 -66 28 -86 33 -86 20z"/>
<path d="M6557 9573 c-2 -5 -7 -26 -11 -48 -14 -84 -18 -95 -33 -95 -12 0 -14
8 -9 45 8 48 6 51 -25 34 -19 -10 -20 -12 -4 -29 30 -33 10 -66 -60 -100 -35
-17 -67 -30 -72 -30 -6 0 -18 -9 -28 -20 -27 -30 -5 -25 102 21 53 22 98 37
101 34 3 -3 0 -63 -6 -133 -15 -154 -15 -175 -2 -167 6 3 10 25 10 48 1 23 10
103 21 177 31 209 36 298 16 263z"/>
<path d="M180 9553 c0 -5 7 -46 15 -93 21 -119 19 -137 -15 -180 -38 -49 -39
-66 -1 -20 16 19 32 32 35 29 10 -10 34 -199 25 -199 -4 0 -17 14 -29 31 -38
52 -33 24 9 -58 39 -75 41 -85 61 -258 11 -99 25 -227 30 -285 22 -232 85
-699 96 -709 9 -8 -3 125 -15 179 -10 45 -42 314 -80 685 -12 110 -23 215 -26
233 -12 92 59 -25 74 -123 9 -59 27 -200 77 -610 4 -27 10 -59 15 -70 12 -30
11 71 -1 136 -6 30 -20 142 -31 249 -11 107 -23 213 -25 235 -5 34 -2 45 19
65 13 14 28 39 31 56 4 18 26 63 49 100 45 72 92 185 85 204 -2 6 -32 -50 -67
-125 -35 -74 -67 -135 -71 -135 -9 0 -18 66 -26 190 -6 80 -4 101 10 122 17
27 11 45 -10 27 -16 -13 -19 -1 -34 131 -12 105 -18 132 -28 126 -4 -2 -3 -52
2 -110 6 -80 5 -113 -4 -136 -18 -42 -36 -32 -32 19 1 23 -2 41 -8 41 -5 0
-10 24 -10 55 0 51 -23 161 -36 174 -3 3 -3 -20 1 -52 8 -61 -6 -107 -31 -107
-11 0 -15 19 -30 138 -4 28 -10 52 -15 52 -5 0 -9 -3 -9 -7z m105 -232 c7 -54
-19 -140 -34 -111 -18 34 -21 100 -6 130 22 42 32 37 40 -19z m109 -287 c15
-102 24 -189 21 -192 -10 -11 -38 13 -46 39 -4 13 -15 83 -24 154 -12 96 -14
137 -6 158 6 15 14 27 19 27 4 0 21 -84 36 -186z m-91 144 c17 -96 28 -197 25
-223 l-3 -30 -18 26 c-10 14 -26 69 -35 121 -16 83 -17 97 -4 116 20 30 29 28
35 -10z"/>
<path d="M6060 9416 c0 -3 15 -58 34 -123 19 -65 39 -143 45 -173 6 -31 20
-70 31 -87 17 -29 24 -32 87 -38 67 -6 134 -19 167 -31 11 -4 16 0 16 14 0 11
-8 23 -17 26 -42 12 -140 26 -184 26 -45 0 -48 2 -58 33 -5 17 -13 50 -16 72
-4 22 -15 63 -25 90 -10 28 -29 83 -41 123 -12 39 -25 72 -30 72 -5 0 -9 -2
-9 -4z"/>
<path d="M440 9354 c0 -21 4 -33 10 -29 6 3 10 19 10 36 0 16 -4 29 -10 29 -5
0 -10 -16 -10 -36z"/>
<path d="M530 9319 c0 -6 17 -41 39 -77 59 -102 92 -170 116 -241 12 -36 29
-69 38 -75 24 -15 120 12 337 94 47 18 97 37 113 43 15 5 27 13 27 18 0 17
-41 9 -127 -27 -130 -54 -283 -104 -318 -104 -29 0 -32 4 -48 56 -25 80 -148
324 -164 324 -7 0 -13 -5 -13 -11z"/>
<path d="M5763 9303 c7 -12 125 -38 133 -30 10 10 -31 26 -86 33 -35 5 -51 4
-47 -3z"/>
<path d="M5632 9218 c-55 -54 -78 -86 -54 -76 10 4 122 126 122 133 0 9 -5 5
-68 -57z"/>
<path d="M676 9248 c12 -39 73 -156 85 -164 14 -8 14 -9 -34 83 -20 40 -37 79
-37 88 0 8 -5 15 -11 15 -6 0 -8 -9 -3 -22z"/>
<path d="M5410 9242 c0 -26 216 -299 227 -288 6 6 -23 47 -125 179 -83 106
-102 127 -102 109z"/>
<path d="M750 9232 c0 -18 40 -100 55 -112 8 -7 15 -8 15 -2 0 5 -6 15 -13 21
-8 6 -19 29 -26 50 -11 37 -31 65 -31 43z"/>
<path d="M820 9222 c0 -15 28 -72 35 -72 3 0 5 9 5 19 0 21 -39 73 -40 53z"/>
<path d="M1257 9223 c-11 -17 4 -302 17 -311 37 -29 170 -64 274 -74 104 -9
135 -7 120 8 -3 3 -53 10 -110 15 -101 9 -211 37 -255 65 -22 14 -23 22 -24
132 -1 124 -9 185 -22 165z"/>
<path d="M5690 9195 c-13 -14 -19 -25 -13 -25 5 0 20 11 33 25 13 14 19 25 13
25 -5 0 -20 -11 -33 -25z"/>
<path d="M5204 9150 c-24 -54 -34 -65 -113 -118 -47 -33 -99 -66 -116 -75 -45
-23 -118 -78 -112 -84 3 -3 71 34 150 81 79 47 149 86 154 86 16 0 42 45 64
108 22 65 22 62 9 62 -6 0 -22 -27 -36 -60z"/>
<path d="M5900 9144 c-25 -25 -87 -78 -137 -116 -51 -38 -93 -74 -93 -79 0
-13 2 -13 76 32 86 52 234 175 234 195 0 28 -36 13 -80 -32z"/>
<path d="M1390 9126 c0 -60 13 -106 31 -106 7 0 8 7 4 18 -4 9 -9 45 -12 80
-7 76 -23 82 -23 8z"/>
<path d="M1700 9162 c0 -8 10 -42 22 -76 l22 -63 -26 -79 c-14 -44 -24 -81
-23 -83 10 -9 26 16 54 82 l30 73 -25 65 c-26 64 -54 106 -54 81z"/>
<path d="M5717 9142 c-15 -15 -27 -31 -27 -36 0 -11 40 19 56 43 22 30 2 26
-29 -7z"/>
<path d="M1800 9149 c0 -22 25 -54 33 -42 4 6 -2 22 -13 34 -14 18 -19 20 -20
8z"/>
<path d="M1930 9150 c0 -5 7 -10 15 -10 8 0 15 5 15 10 0 6 -7 10 -15 10 -8 0
-15 -4 -15 -10z"/>
<path d="M2008 9137 c-29 -11 -35 -22 -18 -32 6 -3 10 -13 10 -21 0 -11 -4
-12 -19 -4 -26 13 -31 13 -31 -4 0 -16 34 -31 50 -21 5 3 20 -1 32 -9 28 -20
48 -20 48 -2 0 8 -10 16 -22 18 -17 2 -24 11 -26 31 -2 15 1 27 7 27 6 0 11 7
11 15 0 17 -4 17 -42 2z"/>
<path d="M5627 9143 c-4 -3 -7 -13 -7 -21 0 -12 3 -12 15 -2 8 7 15 16 15 21
0 11 -14 12 -23 2z"/>
<path d="M2123 9123 c-13 -8 -23 -19 -23 -24 0 -16 48 -10 54 7 14 37 4 42
-31 17z"/>
<path d="M1455 9088 c8 -46 12 -55 20 -46 9 9 -7 88 -17 88 -6 0 -7 -17 -3
-42z"/>
<path d="M1530 9073 c0 -28 3 -34 10 -23 13 20 13 60 0 60 -5 0 -10 -17 -10
-37z"/>
<path d="M4800 9095 c0 -34 20 -95 32 -95 15 0 1 81 -17 100 -13 12 -15 12
-15 -5z"/>
<path d="M4885 9100 c-3 -5 0 -22 8 -36 17 -33 31 -16 17 20 -10 28 -15 31
-25 16z"/>
<path d="M1880 9088 c0 -31 121 -134 142 -122 14 9 -10 41 -41 54 -17 7 -42
27 -56 46 -27 35 -45 44 -45 22z"/>
<path d="M2330 9094 c0 -4 29 -33 64 -66 36 -32 81 -81 101 -108 20 -28 42
-50 49 -50 7 0 30 12 51 26 21 14 85 51 142 82 93 50 121 72 93 72 -5 0 -34
-16 -64 -35 -30 -19 -58 -35 -61 -35 -3 0 -41 -20 -84 -45 -43 -25 -80 -45
-83 -45 -2 0 -19 22 -36 49 -17 26 -61 74 -96 105 -62 54 -76 63 -76 50z"/>
<path d="M3085 9070 c8 -16 28 -44 43 -62 16 -18 46 -62 68 -98 27 -45 40 -59
42 -47 2 10 -15 47 -37 83 -69 110 -158 205 -116 124z"/>
<path d="M4091 9024 c-51 -41 -99 -74 -106 -72 -6 2 -35 31 -64 66 -28 34 -57
62 -63 62 -12 0 -5 -9 71 -97 30 -35 59 -63 65 -63 5 0 25 14 42 31 18 17 63
52 100 78 37 26 70 53 72 59 9 28 -29 7 -117 -64z"/>
<path d="M4362 9073 c-36 -51 -172 -332 -163 -337 14 -9 35 23 88 129 28 55
64 124 82 153 17 29 31 57 31 62 0 22 -20 18 -38 -7z"/>
<path d="M2967 9084 c-10 -10 -9 -44 2 -44 13 0 23 32 13 42 -5 5 -11 5 -15 2z"/>
<path d="M4221 8896 c-96 -188 -121 -269 -41 -129 48 83 150 290 150 304 0 29
-25 -12 -109 -175z"/>
<path d="M2130 9057 c0 -21 12 -28 27 -16 10 9 18 8 31 -5 21 -18 42 -21 42
-6 0 13 -54 40 -80 40 -11 0 -20 -6 -20 -13z"/>
<path d="M3673 9013 c-23 -16 -73 -51 -113 -80 -72 -52 -139 -83 -235 -107
-27 -7 -51 -18 -53 -25 -6 -18 44 -13 106 12 31 13 78 31 103 40 25 10 79 43
121 75 42 31 90 65 107 74 32 17 41 38 18 38 -7 0 -31 -12 -54 -27z"/>
<path d="M2862 9001 c1 -13 15 -33 30 -44 27 -20 28 -20 48 -2 23 21 17 38
-12 29 -13 -4 -28 2 -45 18 l-25 23 4 -24z"/>
<path d="M3050 9007 c0 -21 39 -52 50 -41 7 7 0 18 -20 32 -21 16 -30 19 -30
9z"/>
<path d="M4150 8872 c-41 -81 -77 -150 -78 -155 -2 -4 3 -5 11 -2 11 5 157
283 157 301 0 23 -27 -19 -90 -144z"/>
<path d="M6508 9010 c-18 -42 -98 -905 -98 -1062 0 -27 5 -48 10 -48 6 0 10
26 10 59 0 61 30 385 55 581 31 255 44 519 23 470z"/>
<path d="M3810 8970 c0 -5 5 -10 10 -10 6 0 10 5 10 10 0 6 -4 10 -10 10 -5 0
-10 -4 -10 -10z"/>
<path d="M5268 8974 c-5 -4 -8 -38 -8 -76 0 -104 7 -108 175 -108 74 0 135 4
135 9 0 9 -104 21 -188 21 -75 0 -92 11 -93 63 -2 56 -12 101 -21 91z"/>
<path d="M2154 8956 c-10 -8 -16 -17 -12 -21 11 -11 48 5 48 21 0 18 -11 18
-36 0z"/>
<path d="M2287 8940 c-15 -22 -13 -50 4 -50 5 0 9 9 9 20 0 25 25 36 45 20 15
-13 45 -7 45 9 0 5 -10 9 -22 9 -13 0 -33 3 -44 7 -16 5 -26 1 -37 -15z"/>
<path d="M2980 8930 c0 -11 9 -29 20 -40 21 -21 60 -27 60 -10 0 6 0 13 0 17
0 4 -10 8 -23 8 -13 0 -26 9 -32 23 -12 27 -25 29 -25 2z"/>
<path d="M3835 8819 c-37 -72 -64 -136 -62 -142 4 -13 30 29 96 156 52 101 58
117 41 117 -5 0 -39 -59 -75 -131z"/>
<path d="M2060 8923 c0 -16 81 -83 99 -83 34 0 33 18 -3 35 -19 9 -42 25 -52
36 -17 19 -44 26 -44 12z"/>
<path d="M530 8912 c0 -6 35 -62 78 -124 43 -62 98 -143 122 -180 25 -38 48
-68 53 -68 5 0 59 22 121 49 61 27 133 58 161 69 51 20 71 42 38 42 -11 0 -57
-18 -104 -41 -46 -22 -110 -52 -143 -66 l-59 -24 -29 28 c-16 15 -50 61 -76
101 -26 40 -62 93 -79 117 -18 24 -33 48 -33 53 0 5 -11 19 -25 32 -14 13 -25
18 -25 12z"/>
<path d="M6427 8913 c-11 -17 -87 -753 -87 -837 0 -109 24 53 59 389 42 404
46 478 28 448z"/>
<path d="M3131 8874 c-6 -20 -19 -46 -29 -58 -11 -12 -34 -65 -52 -118 -25
-79 -35 -98 -51 -98 -10 0 -19 -4 -19 -9 0 -10 40 -22 51 -15 4 2 18 37 30 77
19 60 24 68 29 47 5 -19 13 0 38 85 35 122 36 125 22 125 -5 0 -14 -16 -19
-36z"/>
<path d="M5940 8885 c0 -32 18 -116 29 -134 9 -14 189 -53 204 -44 4 2 7 11 7
18 0 16 -8 18 -110 34 -72 12 -100 34 -100 80 0 36 -11 71 -21 71 -5 0 -9 -11
-9 -25z"/>
<path d="M2670 8872 c0 -21 66 -67 151 -108 92 -43 119 -51 119 -36 0 7 -130
72 -183 92 -15 5 -32 21 -37 35 -9 23 -50 37 -50 17z"/>
<path d="M3672 8858 c18 -28 68 -37 68 -14 0 10 -9 16 -24 16 -14 0 -28 5 -31
10 -3 6 -11 10 -17 10 -6 0 -4 -9 4 -22z"/>
<path d="M4093 8868 c-23 -32 -73 -140 -62 -136 15 5 94 148 81 148 -5 0 -14
-6 -19 -12z"/>
<path d="M2325 8860 c-3 -5 1 -10 9 -10 8 0 18 5 21 10 3 6 -1 10 -9 10 -8 0
-18 -4 -21 -10z"/>
<path d="M3947 8863 c-4 -3 -7 -11 -7 -17 0 -6 5 -5 12 2 6 6 9 14 7 17 -3 3
-9 2 -12 -2z"/>
<path d="M2370 8845 c-7 -9 -10 -18 -7 -22 8 -7 37 15 37 28 0 14 -16 11 -30
-6z"/>
<path d="M2460 8806 c0 -19 -5 -26 -20 -26 -23 0 -27 -15 -5 -24 18 -6 57 32
53 53 -5 27 -28 24 -28 -3z"/>
<path d="M2650 8806 c0 -14 29 -31 38 -21 6 6 -18 35 -29 35 -5 0 -9 -6 -9
-14z"/>
<path d="M3186 8783 c-4 -21 -9 -46 -12 -55 -3 -10 -1 -18 5 -18 11 0 41 90
34 103 -10 17 -21 5 -27 -30z"/>
<path d="M776 8802 c-5 -8 48 -102 58 -102 6 0 -33 92 -44 103 -4 5 -10 5 -14
-1z"/>
<path d="M2210 8801 c0 -13 77 -61 97 -61 16 1 16 2 -2 12 -11 6 -33 22 -48
35 -30 24 -47 29 -47 14z"/>
<path d="M3616 8794 c-4 -12 -14 -14 -38 -9 -32 6 -32 5 -13 -10 28 -23 69
-16 73 13 4 25 -13 30 -22 6z"/>
<path d="M870 8788 c1 -18 37 -64 45 -57 7 7 -27 69 -37 69 -5 0 -8 -6 -8 -12z"/>
<path d="M1267 8780 c-9 -14 -33 -72 -53 -130 l-37 -106 68 -84 c123 -154 175
-199 175 -150 0 31 -29 82 -43 77 -12 -5 -60 39 -130 120 l-36 42 24 52 c13
29 22 57 19 61 -3 5 4 33 16 63 25 61 23 94 -3 55z"/>
<path d="M3442 8743 c-11 -27 -23 -58 -27 -70 -4 -16 -14 -23 -31 -23 -27 0
-32 -15 -8 -24 9 -3 110 -6 226 -6 183 0 209 -2 204 -15 -7 -20 11 -19 22 0 6
12 36 19 105 26 115 12 180 32 77 24 -99 -8 -557 -11 -565 -4 -3 4 5 36 19 73
19 49 22 66 12 66 -8 0 -23 -21 -34 -47z"/>
<path d="M3962 8777 c-18 -21 -32 -66 -23 -72 5 -2 16 14 25 36 18 43 17 59
-2 36z"/>
<path d="M2606 8746 c5 -20 2 -26 -10 -26 -9 0 -16 -5 -16 -11 0 -6 12 -9 28
-7 35 4 43 41 12 58 -19 10 -20 9 -14 -14z"/>
<path d="M3335 8758 c-2 -7 -18 -65 -35 -128 -18 -63 -41 -136 -51 -162 -24
-61 -62 -209 -55 -216 6 -6 12 8 54 138 60 183 112 353 112 366 0 17 -19 18
-25 2z"/>
<path d="M2673 8738 c-6 -7 -15 -26 -20 -43 -9 -25 -15 -30 -42 -29 -17 1 -31
-1 -31 -5 0 -34 88 -43 121 -12 20 19 20 19 -5 25 -29 7 -34 27 -11 46 17 14
20 30 6 30 -5 0 -13 -6 -18 -12z"/>
<path d="M6320 8703 c0 -27 -9 -118 -20 -203 -21 -162 -26 -287 -11 -260 5 8
14 65 20 125 11 104 25 233 36 338 5 38 3 47 -10 47 -11 0 -15 -11 -15 -47z"/>
<path d="M1616 8722 c-3 -5 12 -18 32 -30 56 -31 83 -64 80 -98 -1 -16 1 -53
6 -82 12 -75 32 -62 28 19 -6 118 -12 130 -72 167 -58 34 -66 37 -74 24z"/>
<path d="M2010 8683 c-14 -26 -46 -81 -72 -121 -27 -40 -48 -77 -48 -82 0 -5
34 -54 76 -109 71 -94 104 -121 104 -86 0 8 -4 15 -10 15 -9 0 -107 127 -129
168 -13 25 -4 49 51 127 18 26 39 56 45 68 8 14 13 16 13 8 0 -22 17 -1 25 32
6 22 4 27 -11 27 -12 0 -28 -17 -44 -47z"/>
<path d="M2342 8718 c6 -16 36 -34 44 -25 9 9 -15 37 -33 37 -8 0 -13 -5 -11
-12z"/>
<path d="M2772 8718 c3 -7 13 -15 24 -17 16 -3 17 -1 5 13 -16 19 -34 21 -29
4z"/>
<path d="M2476 8713 c-15 -15 -4 -33 19 -33 14 0 25 3 25 8 0 11 -37 32 -44
25z"/>
<path d="M3375 8710 c-3 -5 -1 -10 4 -10 6 0 11 5 11 10 0 6 -2 10 -4 10 -3 0
-8 -4 -11 -10z"/>
<path d="M4166 8699 c-9 -13 -16 -29 -16 -36 0 -21 18 -15 36 13 23 34 4 56
-20 23z"/>
<path d="M2430 8671 c0 -5 7 -14 15 -21 16 -14 18 -10 9 14 -6 17 -24 22 -24
7z"/>
<path d="M2795 8660 c-3 -5 1 -10 9 -10 9 0 16 5 16 10 0 6 -4 10 -9 10 -6 0
-13 -4 -16 -10z"/>
<path d="M2930 8655 c0 -8 5 -15 10 -15 6 0 10 7 10 15 0 8 -4 15 -10 15 -5 0
-10 -7 -10 -15z"/>
<path d="M3243 8649 c-16 -20 -27 -69 -15 -69 12 0 35 55 30 71 -3 8 -7 7 -15
-2z"/>
<path d="M2735 8631 c-3 -11 -15 -23 -26 -26 -24 -8 -25 -25 0 -25 18 0 51 38
51 60 0 18 -18 11 -25 -9z"/>
<path d="M3165 8638 c-27 -73 -45 -135 -45 -152 1 -20 1 -20 14 -3 8 10 19 16
26 15 19 -4 46 82 30 92 -8 5 -10 17 -6 34 6 26 -10 38 -19 14z m15 -72 c0 -3
-4 -8 -10 -11 -5 -3 -10 -1 -10 4 0 6 5 11 10 11 6 0 10 -2 10 -4z"/>
<path d="M2490 8621 c0 -6 13 -17 29 -26 17 -8 36 -24 44 -36 10 -13 23 -19
38 -17 28 4 40 38 13 38 -9 0 -31 8 -48 19 -41 25 -76 35 -76 22z"/>
<path d="M2230 8601 c-12 -24 -13 -178 -1 -185 5 -3 12 26 16 65 5 53 12 73
26 82 10 6 19 22 19 34 0 18 -6 23 -25 23 -14 0 -29 -8 -35 -19z"/>
<path d="M2849 8604 c-9 -11 -10 -20 -3 -32 15 -22 39 -29 31 -8 -5 12 -1 16
16 16 23 0 47 17 47 32 0 5 -9 4 -21 -3 -15 -8 -24 -8 -32 0 -15 15 -22 14
-38 -5z"/>
<path d="M5345 8591 c-3 -5 -1 -12 5 -16 5 -3 10 1 10 9 0 18 -6 21 -15 7z"/>
<path d="M3930 8580 c-58 -4 -215 -9 -350 -10 -158 -1 -233 -5 -210 -10 63
-16 535 -12 639 5 51 8 96 17 99 20 6 6 -27 5 -178 -5z"/>
<path d="M5382 8565 c-15 -33 -15 -35 1 -35 15 0 39 44 30 54 -12 11 -20 6
-31 -19z"/>
<path d="M3022 8470 c-18 -63 -44 -150 -58 -193 -28 -91 -27 -87 -13 -87 18 0
38 32 39 60 0 14 16 82 36 152 19 70 34 140 32 155 -2 19 -13 -8 -36 -87z"/>
<path d="M4990 8564 c0 -14 3 -14 15 -4 8 7 15 14 15 16 0 2 -7 4 -15 4 -8 0
-15 -7 -15 -16z"/>
<path d="M6246 8562 c-9 -15 -29 -192 -22 -199 11 -12 15 2 25 102 10 96 9
116 -3 97z"/>
<path d="M5195 8530 c-38 -4 -177 -8 -307 -9 -146 -1 -239 -5 -243 -11 -4 -7
51 -10 158 -10 185 0 228 -5 220 -26 -7 -20 6 -17 25 5 13 15 40 21 121 30 57
5 109 15 114 20 8 8 7 11 -3 9 -8 0 -46 -4 -85 -8z"/>
<path d="M2694 8488 c26 -44 50 -58 68 -40 14 14 -12 49 -47 68 -44 22 -48 17
-21 -28z"/>
<path d="M2944 8511 c16 -17 16 -19 -6 -26 -21 -6 -21 -8 -4 -12 10 -3 25 2
33 10 13 12 12 16 -2 31 -23 22 -42 20 -21 -3z"/>
<path d="M3910 8508 c-47 -5 -185 -10 -307 -11 -137 -1 -218 -6 -213 -11 6 -5
37 -12 70 -14 51 -4 60 -7 60 -23 0 -11 5 -19 10 -19 6 0 10 7 10 15 0 19 20
23 185 29 168 7 299 21 323 35 21 13 -14 12 -138 -1z"/>
<path d="M2300 8472 c0 -21 7 -47 15 -58 14 -19 14 -19 15 1 0 38 -13 95 -21
95 -5 0 -9 -17 -9 -38z"/>
<path d="M2374 8456 c-4 -10 -2 -22 4 -28 8 -8 13 -7 18 6 4 10 2 22 -4 28 -8
8 -13 7 -18 -6z"/>
<path d="M2810 8457 c0 -9 9 -21 20 -27 11 -6 20 -7 20 -2 0 5 -9 17 -20 27
-18 16 -20 16 -20 2z"/>
<path d="M5235 8460 c-27 -5 -171 -9 -320 -10 -148 -1 -281 -6 -295 -10 -22
-7 259 -16 460 -14 76 0 231 23 245 35 11 10 -18 10 -90 -1z"/>
<path d="M3350 8440 c0 -5 5 -10 11 -10 5 0 7 5 4 10 -3 6 -8 10 -11 10 -2 0
-4 -4 -4 -10z"/>
<path d="M3573 8421 c-7 -27 -69 -30 -89 -3 -12 15 -15 15 -24 2 -16 -25 -12
-29 38 -35 26 -3 66 -10 90 -16 24 -5 47 -7 51 -4 5 2 42 7 82 10 41 2 113 7
160 10 47 3 99 10 115 15 18 6 -50 7 -183 3 -191 -5 -213 -4 -213 10 0 25 -21
31 -27 8z"/>
<path d="M2940 8385 c-12 -27 -20 -58 -18 -69 2 -14 11 1 26 42 28 76 21 96
-8 27z"/>
<path d="M5030 8400 c0 -5 5 -10 10 -10 6 0 10 5 10 10 0 6 -4 10 -10 10 -5 0
-10 -4 -10 -10z"/>
<path d="M5259 8396 c-9 -8 -362 -28 -507 -28 -94 0 -149 -4 -141 -9 8 -5 40
-9 72 -9 54 0 57 -1 57 -25 0 -14 5 -25 10 -25 6 0 10 9 10 19 0 22 28 26 255
36 156 7 242 18 257 33 11 11 -2 18 -13 8z"/>
<path d="M2220 8368 c0 -18 9 -33 29 -48 57 -40 121 -56 121 -31 0 5 -27 18
-60 30 -33 12 -60 25 -60 30 0 4 -7 16 -15 27 -14 18 -14 18 -15 -8z"/>
<path d="M3380 8365 c-15 -19 -3 -40 15 -25 17 14 43 3 50 -21 7 -21 40 -22
40 -2 0 14 -63 63 -81 63 -6 0 -17 -7 -24 -15z"/>
<path d="M3265 8349 c-15 -43 -35 -102 -35 -106 0 -2 4 -2 9 2 13 7 45 105 37
112 -3 3 -8 0 -11 -8z"/>
<path d="M3297 8260 c-16 -52 -31 -103 -34 -112 -3 -10 0 -18 6 -18 14 0 63
161 59 196 -2 22 -10 6 -31 -66z"/>
<path d="M3942 8269 c-46 -103 -55 -129 -49 -135 12 -12 26 8 62 92 25 60 33
90 26 97 -7 7 -19 -9 -39 -54z"/>
<path d="M3132 8299 c-5 -13 -12 -37 -16 -53 -6 -26 -5 -28 8 -17 16 14 33 78
22 88 -3 3 -9 -5 -14 -18z"/>
<path d="M4787 8290 c-6 -25 -53 -27 -79 -3 -15 13 -21 14 -31 4 -17 -17 6
-29 73 -36 30 -3 65 -10 77 -15 14 -6 25 -6 28 0 4 6 36 10 73 10 102 0 296
20 307 32 7 7 -21 8 -90 4 -348 -20 -316 -21 -322 3 -7 27 -29 27 -36 1z"/>
<path d="M3550 8290 c0 -6 56 -10 149 -10 89 0 152 4 156 10 4 7 -48 10 -149
10 -97 0 -156 -4 -156 -10z"/>
<path d="M3853 8258 c-16 -19 -63 -116 -63 -128 0 -27 19 -3 49 61 31 66 37
96 14 67z"/>
<path d="M3696 8215 c-22 -34 -21 -52 3 -31 20 18 34 56 21 56 -4 0 -15 -11
-24 -25z"/>
<path d="M3762 8195 c-24 -51 -28 -69 -11 -63 6 2 20 26 30 53 22 58 21 55 11
55 -4 0 -18 -20 -30 -45z"/>
<path d="M3500 8191 c-13 -26 -13 -31 5 -31 9 0 15 9 15 25 0 30 -6 32 -20 6z"/>
<path d="M3630 8195 c0 -8 4 -15 9 -15 5 0 11 7 15 15 3 9 0 15 -9 15 -8 0
-15 -7 -15 -15z"/>
<path d="M370 7364 c0 -69 23 -280 75 -714 50 -416 52 -423 65 -415 13 8 13
51 0 74 -5 10 -16 71 -24 137 -24 185 -45 357 -61 494 -8 69 -19 163 -25 210
-6 47 -12 122 -14 168 -5 91 -16 125 -16 46z"/>
<path d="M6380 7195 c0 -14 -25 -198 -55 -410 -30 -211 -54 -408 -54 -437 l1
-53 10 60 c5 33 27 173 48 310 35 221 70 488 70 538 0 9 -4 17 -10 17 -5 0
-10 -11 -10 -25z"/>
<path d="M451 7105 c0 -79 13 -214 44 -460 31 -240 34 -255 44 -235 10 18 -10
207 -37 355 -11 61 -23 168 -26 239 -8 137 -25 209 -25 101z"/>
<path d="M6277 6879 c-13 -61 -47 -337 -46 -364 1 -40 46 189 57 288 8 73 -1
131 -11 76z"/>
<path d="M540 6821 c0 -22 5 -43 10 -46 6 -4 10 12 10 39 0 25 -4 46 -10 46
-5 0 -10 -18 -10 -39z"/>
<path d="M6197 6674 c-4 -4 -7 -17 -7 -28 1 -19 1 -20 11 -3 11 19 8 43 -4 31z"/>
<path d="M623 4788 c15 -207 30 -363 58 -623 30 -287 37 -331 45 -323 5 6 -32
395 -47 493 -6 39 -14 169 -18 290 -6 215 -11 245 -33 245 -8 0 -9 -26 -5 -82z"/>
<path d="M6170 4830 c0 -5 5 -10 11 -10 5 0 7 5 4 10 -3 6 -8 10 -11 10 -2 0
-4 -4 -4 -10z"/>
<path d="M6166 4698 c-19 -257 -49 -938 -42 -945 3 -3 7 10 10 28 5 32 28 494
42 842 7 165 1 215 -10 75z"/>
<path d="M6117 4763 c-9 -16 -16 -69 -22 -163 -10 -184 -26 -406 -36 -505 -6
-55 -12 -145 -14 -200 -2 -55 -6 -120 -11 -144 -5 -30 -4 -42 3 -38 20 12 55
379 68 707 4 80 11 189 16 244 9 91 8 119 -4 99z"/>
<path d="M732 4348 c10 -84 31 -252 48 -373 26 -196 29 -209 25 -115 -3 58 -9
130 -14 160 -5 30 -22 151 -37 268 -16 116 -31 212 -34 212 -4 0 2 -69 12
-152z"/>
<path d="M814 4399 c3 -30 8 -103 12 -164 7 -134 40 -435 48 -443 10 -9 7 84
-8 237 -8 80 -20 206 -27 279 -7 73 -16 135 -22 139 -5 3 -6 -17 -3 -48z"/>
<path d="M6005 4373 c-3 -27 -10 -57 -14 -68 -4 -11 -7 -46 -6 -77 1 -32 -2
-55 -6 -52 -16 9 -10 -53 6 -66 12 -10 16 -10 19 1 5 15 26 242 26 283 0 44
-18 28 -25 -21z"/>
<path d="M6121 3714 c0 -11 3 -14 6 -6 3 7 2 16 -1 19 -3 4 -6 -2 -5 -13z"/>
<path d="M752 2680 c0 -14 2 -19 5 -12 2 6 2 18 0 25 -3 6 -5 1 -5 -13z"/>
<path d="M6092 2640 c0 -19 2 -27 5 -17 2 9 2 25 0 35 -3 9 -5 1 -5 -18z"/>
<path d="M761 2598 c-3 -69 55 -619 122 -1153 14 -104 32 -261 42 -347 10 -87
22 -158 26 -158 5 0 9 8 9 18 -1 70 -91 820 -120 992 -8 46 -21 174 -35 335
-12 133 -42 349 -44 313z"/>
<path d="M6081 2565 c-1 -5 -8 -71 -17 -145 -8 -74 -21 -203 -29 -286 -7 -83
-23 -215 -34 -295 -11 -79 -29 -216 -41 -304 -11 -88 -25 -191 -30 -230 -6
-38 -17 -141 -25 -229 -9 -87 -17 -163 -18 -169 -1 -5 3 -11 9 -14 7 -2 17 49
29 154 15 137 29 257 75 623 49 387 96 870 87 892 -3 7 -6 9 -6 3z"/>
<path d="M921 1825 c0 -16 4 -68 9 -115 6 -47 23 -202 39 -345 42 -369 54
-455 63 -455 12 0 10 38 -12 220 -11 91 -25 212 -30 270 -9 92 -35 268 -60
410 -6 35 -8 38 -9 15z"/>
<path d="M5916 1753 c-4 -27 -16 -102 -26 -168 -11 -66 -24 -169 -30 -230 -5
-60 -19 -184 -30 -275 -11 -91 -20 -177 -20 -192 0 -49 17 -30 23 25 17 154
68 593 76 662 16 130 24 225 18 225 -2 0 -8 -21 -11 -47z"/>
<path d="M1065 1220 c9 -137 35 -404 41 -409 2 -3 8 0 13 5 10 9 4 89 -25 334
-19 163 -38 208 -29 70z"/>
<path d="M5776 1263 c-16 -81 -57 -484 -50 -495 10 -16 22 3 28 44 3 24 12
131 21 238 9 107 18 205 20 218 3 12 1 22 -4 22 -5 0 -12 -12 -15 -27z"/>
<path d="M4845 951 c-13 -23 -51 -239 -44 -257 4 -10 8 -71 9 -134 l2 -115 13
95 c8 52 21 114 29 138 9 24 18 73 21 110 4 37 11 87 17 110 9 36 8 46 -3 53
-18 11 -36 11 -44 0z"/>
<path d="M1164 903 c3 -21 9 -62 12 -90 7 -52 19 -68 30 -38 3 8 1 38 -6 67
-6 29 -13 63 -16 76 -8 39 -27 25 -20 -15z"/>
<path d="M1774 874 c13 -124 47 -338 57 -354 7 -11 9 -5 5 20 -10 69 -26 217
-33 304 -6 62 -12 91 -22 94 -11 4 -12 -8 -7 -64z"/>
<path d="M1715 878 c3 -18 14 -104 25 -192 19 -153 30 -206 30 -135 0 19 -9
102 -20 184 -11 83 -20 156 -20 163 0 6 -5 12 -10 12 -7 0 -9 -13 -5 -32z"/>
<path d="M5672 883 c-15 -31 -35 -141 -28 -159 11 -29 22 -3 36 84 13 83 10
110 -8 75z"/>
<path d="M1853 743 c4 -27 9 -89 13 -140 7 -90 16 -124 30 -110 7 7 -12 241
-23 280 -2 9 -9 17 -15 17 -7 0 -8 -17 -5 -47z"/>
<path d="M3510 726 c0 -16 24 -38 33 -30 8 9 -11 44 -23 44 -6 0 -10 -6 -10
-14z"/>
<path d="M3448 555 c3 -111 0 -165 -7 -165 -6 0 -11 39 -13 103 -2 64 -7 100
-13 97 -10 -5 -8 -216 2 -233 3 -4 11 -3 18 3 10 8 14 8 17 -1 2 -7 9 -9 15
-6 18 11 10 361 -8 365 -12 2 -13 -26 -11 -163z"/>
<path d="M1681 650 c-1 -41 11 -100 20 -100 10 0 1 71 -12 105 -7 18 -8 18 -8
-5z"/>
<path d="M3507 593 c-10 -99 -8 -241 2 -247 7 -5 20 154 26 298 0 5 -5 11 -11
13 -7 2 -13 -22 -17 -64z"/>
<path d="M4876 582 c-13 -21 -19 -132 -7 -132 6 0 11 15 11 34 0 19 4 45 9 59
10 25 -1 58 -13 39z"/>
<path d="M4768 560 c-4 -8 -9 -41 -11 -72 -6 -62 8 -80 18 -25 8 40 2 118 -7
97z"/>
<path d="M3577 483 c-10 -17 -18 -143 -9 -143 5 0 12 33 15 73 5 71 4 86 -6
70z"/>
<path d="M2220 9862 c0 -6 14 -46 31 -89 17 -43 35 -89 40 -102 5 -13 11 -22
14 -20 5 5 -68 205 -78 215 -4 4 -7 2 -7 -4z"/>
<path d="M2820 9841 c0 -12 49 -51 63 -51 6 0 2 9 -9 21 -24 26 -54 43 -54 30z"/>
<path d="M2310 9834 c0 -20 32 -104 40 -104 5 0 3 18 -5 40 -17 47 -34 80 -35
64z"/>
<path d="M2720 9824 c8 -8 43 -33 80 -54 37 -21 72 -46 80 -54 16 -20 30 -20
30 -2 0 8 -40 39 -89 70 -89 57 -126 71 -101 40z"/>
<path d="M2360 9822 c0 -5 9 -17 20 -27 20 -18 25 -11 14 19 -6 17 -34 23 -34
8z"/>
<path d="M2690 9629 c0 -2 -14 -37 -30 -78 -31 -76 -37 -102 -20 -85 13 13 61
156 55 162 -3 3 -5 3 -5 1z"/>
<path d="M2584 9526 c-14 -32 -23 -60 -20 -63 3 -3 17 20 31 52 14 31 23 60
21 63 -3 3 -17 -21 -32 -52z"/>
<path d="M2710 9521 c-6 -13 -6 -22 -1 -26 9 -5 31 24 31 39 0 14 -20 4 -30
-13z"/>
<path d="M4273 10809 c-68 -37 -96 -59 -75 -59 8 0 57 27 142 79 8 5 13 11 10
14 -3 3 -38 -12 -77 -34z"/>
<path d="M4466 10768 c-36 -40 -66 -79 -66 -86 0 -7 11 -38 24 -70 13 -31 27
-74 31 -95 4 -20 11 -40 16 -43 15 -9 10 41 -11 108 -31 100 -29 112 40 180
33 33 60 64 60 69 0 25 -35 1 -94 -63z"/>
<path d="M4254 10728 c-43 -28 -72 -54 -66 -56 12 -4 135 79 147 98 11 18 -2
11 -81 -42z"/>
<path d="M4490 10652 c0 -36 19 -92 31 -92 12 0 11 26 -1 72 -13 47 -30 58
-30 20z"/>
<path d="M5171 10598 c-11 -29 4 -48 36 -48 17 0 23 5 21 18 -2 12 5 18 25 20
54 6 18 32 -46 32 -20 0 -30 -7 -36 -22z"/>
<path d="M5152 10543 c-19 -7 -4 -23 24 -23 27 0 32 15 8 24 -9 3 -16 6 -17 5
-1 0 -8 -3 -15 -6z"/>
<path d="M5423 10538 c-5 -7 -22 -34 -37 -61 l-27 -47 20 -27 c20 -24 71 -168
71 -197 0 -8 7 -19 15 -26 13 -10 15 -9 15 12 0 13 -7 48 -16 78 -13 44 -13
54 -2 61 8 6 14 3 16 -6 7 -30 29 -14 55 41 27 54 27 56 7 51 -19 -5 -20 -2
-14 29 9 51 -10 42 -47 -23 -40 -72 -50 -54 -14 26 17 36 25 67 21 78 -6 14
-12 8 -31 -31 -43 -89 -61 -87 -25 4 18 47 15 66 -7 38z"/>
<path d="M4200 10516 c0 -15 71 -158 76 -153 13 13 -48 157 -66 157 -6 0 -10
-2 -10 -4z"/>
<path d="M5916 10501 c-8 -13 16 -30 51 -37 38 -7 55 13 28 33 -21 15 -71 18
-79 4z"/>
<path d="M4270 10496 c0 -2 9 -24 20 -50 22 -48 40 -60 40 -26 0 30 -28 80
-45 80 -8 0 -15 -2 -15 -4z"/>
<path d="M4146 10481 c-8 -12 53 -171 65 -171 15 0 10 22 -21 100 -35 84 -36
85 -44 71z"/>
<path d="M5120 10480 c20 -13 40 -13 40 0 0 6 -12 10 -27 10 -22 0 -25 -2 -13
-10z"/>
<path d="M5100 10440 c0 -5 7 -10 15 -10 8 0 15 5 15 10 0 6 -7 10 -15 10 -8
0 -15 -4 -15 -10z"/>
<path d="M6168 10395 c-20 -50 -35 -175 -20 -175 5 0 13 26 16 58 4 31 12 72
17 89 17 52 6 75 -13 28z"/>
<path d="M4389 10369 c-78 -50 -100 -69 -93 -80 6 -11 50 11 127 63 32 21 55
43 52 49 -10 15 -18 11 -86 -32z"/>
<path d="M6207 10311 c-19 -61 -21 -91 -8 -91 12 0 35 99 29 125 -3 14 -10 2
-21 -34z"/>
<path d="M4390 10310 c-8 -5 -11 -12 -8 -16 10 -9 38 3 38 16 0 12 -10 13 -30
0z"/>
<path d="M3495 10219 c-79 -70 -80 -71 -86 -127 -10 -86 -10 -222 0 -222 8 0
20 111 22 199 0 45 2 48 90 125 49 44 89 83 89 88 0 23 -44 -1 -115 -63z"/>
<path d="M6235 10270 c-8 -13 4 -32 16 -25 12 8 12 35 0 35 -6 0 -13 -4 -16
-10z"/>
<path d="M3162 10189 c2 -6 24 -23 48 -36 25 -14 60 -36 78 -50 18 -14 36 -22
39 -19 11 11 -21 38 -78 67 -32 16 -60 33 -64 39 -8 14 -28 13 -23 -1z"/>
<path d="M5727 10183 c-3 -4 12 -46 33 -93 58 -131 69 -153 90 -180 37 -48 22
9 -38 144 -54 121 -73 149 -85 129z"/>
<path d="M6363 10125 c-15 -26 -45 -70 -65 -98 -36 -48 -47 -77 -30 -77 8 0
90 126 117 178 26 52 9 50 -22 -3z"/>
<path d="M5799 10132 c5 -16 17 -44 26 -63 28 -52 31 -15 4 42 -24 53 -42 66
-30 21z"/>
<path d="M3180 10123 c0 -14 118 -94 124 -84 3 4 -2 15 -12 23 -29 26 -112 70
-112 61z"/>
<path d="M3526 10123 c-9 -10 -7 -161 3 -167 14 -9 21 21 21 94 0 64 -8 89
-24 73z"/>
<path d="M4312 10106 c-14 -33 -8 -66 9 -49 6 6 9 26 7 44 l-4 34 -12 -29z"/>
<path d="M3477 10113 c-3 -4 -8 -37 -11 -73 -4 -36 -9 -82 -12 -102 -4 -29 -2
-38 9 -38 11 0 15 24 20 107 7 101 5 125 -6 106z"/>
<path d="M5340 10112 c0 -10 43 -52 53 -52 3 0 4 6 1 14 -7 17 -54 50 -54 38z"/>
<path d="M3570 10065 c-12 -37 -8 -65 9 -65 13 0 33 64 25 83 -10 26 -21 20
-34 -18z"/>
<path d="M4747 10085 c-42 -14 -53 -22 -45 -30 11 -11 98 17 98 31 0 17 -4 17
-53 -1z"/>
<path d="M5649 10058 c-13 -18 -54 -66 -91 -107 -38 -41 -68 -78 -68 -83 0
-10 30 -11 30 0 0 4 34 45 75 92 71 80 93 115 82 126 -3 3 -15 -10 -28 -28z"/>
<path d="M6378 10047 c-55 -62 -70 -85 -58 -92 9 -6 100 108 100 126 0 14 -2
12 -42 -34z"/>
<path d="M5290 10071 c0 -11 62 -62 69 -56 2 3 -4 14 -15 26 -24 26 -54 43
-54 30z"/>
<path d="M5949 10075 c-4 -5 -10 -37 -13 -70 -4 -33 -12 -86 -18 -117 -11 -61
-3 -112 12 -73 21 57 38 291 19 260z"/>
<path d="M4743 10028 c-68 -16 -123 -34 -123 -39 0 -20 32 -20 92 0 35 11 86
25 115 31 53 12 95 41 57 39 -11 0 -74 -14 -141 -31z"/>
<path d="M3176 10031 c-3 -4 12 -15 34 -24 45 -17 62 -7 28 17 -25 18 -54 21
-62 7z"/>
<path d="M5202 10029 c3 -9 112 -59 131 -59 22 0 0 19 -48 43 -58 28 -89 34
-83 16z"/>
<path d="M6396 9990 c-52 -56 -61 -82 -16 -50 29 21 80 80 80 93 0 17 -21 3
-64 -43z"/>
<path d="M5977 9988 c-13 -51 -19 -128 -12 -145 9 -22 34 71 35 130 0 41 -15
50 -23 15z"/>
<path d="M5611 9925 c-39 -41 -71 -80 -71 -85 0 -22 30 -8 49 23 11 17 40 52
65 77 25 24 46 48 46 52 0 20 -22 3 -89 -67z"/>
<path d="M6035 9958 c-10 -33 -22 -108 -17 -113 13 -13 21 -2 31 45 6 28 11
58 11 65 0 18 -19 20 -25 3z"/>
<path d="M4939 9955 c-9 -15 11 -179 23 -190 7 -7 8 10 3 55 -11 100 -20 146
-26 135z"/>
<path d="M4881 9928 c-2 -45 21 -178 30 -178 10 0 6 30 -16 140 -7 36 -13 53
-14 38z"/>
<path d="M4821 9888 c0 -29 3 -84 8 -122 7 -67 9 -71 58 -116 27 -25 58 -58
68 -73 21 -33 45 -35 45 -5 0 14 -22 42 -61 78 -66 60 -78 89 -79 187 0 56
-14 103 -30 103 -6 0 -10 -23 -9 -52z"/>
<path d="M5665 9889 c-31 -29 -44 -48 -37 -53 15 -9 96 66 90 84 -3 10 -19 1
-53 -31z"/>
<path d="M5000 9868 c0 -26 5 -50 10 -53 13 -8 13 65 0 85 -7 11 -10 2 -10
-32z"/>
<path d="M3440 9853 c-43 -16 -252 -169 -265 -193 -24 -47 -54 -166 -44 -181
11 -19 23 -4 39 46 44 138 44 139 148 208 53 35 102 67 109 71 7 4 40 -29 87
-86 94 -117 221 -260 241 -271 35 -19 12 35 -42 101 -32 38 -92 111 -133 162
-106 132 -123 149 -140 143z"/>
<path d="M3990 9851 c8 -5 44 -14 80 -20 36 -7 77 -14 93 -17 15 -3 27 -1 27
4 0 10 -154 42 -195 42 -16 -1 -17 -2 -5 -9z"/>
<path d="M4020 9800 c0 -5 20 -10 45 -10 25 0 45 5 45 10 0 6 -20 10 -45 10
-25 0 -45 -4 -45 -10z"/>
<path d="M4234 9802 c-5 -4 -54 -55 -107 -114 -102 -112 -111 -131 -87 -193
16 -41 35 -25 32 26 -3 43 -1 47 82 136 46 50 90 101 96 113 12 23 2 44 -16
32z"/>
<path d="M5231 9778 c-84 -45 -193 -140 -178 -155 6 -6 247 163 247 173 0 10
-31 2 -69 -18z"/>
<path d="M4025 9760 c-4 -6 5 -10 19 -10 14 0 26 5 26 10 0 6 -9 10 -19 10
-11 0 -23 -4 -26 -10z"/>
<path d="M3392 9717 c-62 -33 -132 -85 -132 -98 0 -6 15 -1 33 10 17 12 58 35
89 51 31 16 59 34 62 39 13 20 -13 19 -52 -2z"/>
<path d="M4218 9656 c-32 -36 -58 -71 -58 -78 1 -13 130 121 130 135 0 18 -19
3 -72 -57z"/>
<path d="M4520 9619 c-48 -94 -56 -129 -30 -129 14 0 100 175 100 205 0 46
-19 26 -70 -76z"/>
<path d="M5229 9701 c-13 -11 -21 -23 -17 -26 9 -9 58 21 58 35 0 15 -15 12
-41 -9z"/>
<path d="M4294 9657 c-52 -57 -67 -77 -62 -83 3 -3 27 20 53 51 51 59 58 86 9
32z"/>
<path d="M3388 9644 c-52 -26 -76 -51 -38 -39 45 14 89 35 94 44 13 20 -11 18
-56 -5z"/>
<path d="M4322 9617 c-42 -43 -43 -71 -1 -31 34 32 54 64 41 64 -4 0 -22 -15
-40 -33z"/>
<path d="M4575 9577 c-17 -41 -19 -57 -7 -57 11 0 37 78 29 87 -4 3 -14 -10
-22 -30z"/>
<path d="M3385 9590 c-3 -5 -4 -14 0 -20 8 -13 35 -1 35 16 0 16 -26 19 -35 4z"/>
<path d="M4622 9563 c-18 -32 -16 -51 4 -31 9 8 14 24 12 34 -4 18 -5 17 -16
-3z"/>
<path d="M4667 9553 c-4 -3 -7 -13 -7 -21 0 -12 3 -12 15 -2 8 7 15 16 15 21
0 11 -14 12 -23 2z"/>
<path d="M3876 9501 c-18 -33 -20 -51 -8 -51 9 0 34 71 27 78 -2 2 -11 -10
-19 -27z"/>
</g>
</svg>
